<svg xmlns="http://www.w3.org/2000/svg" xmlns:xlink="http://www.w3.org/1999/xlink" width="3764pt" height="2004" viewBox="0 0 3764.43 1503.4"><g id="graph0" class="graph" transform="scale(1 1) rotate(0) translate(4 1499.4)"><title>UmlClassDiagram</title><polygon fill="#fff" stroke="transparent" points="-4 4 -4 -1499.4 3760.429 -1499.4 3760.429 4 -4 4"/><g id="node1" class="node"><title>0</title><polygon fill="#f2f2f2" stroke="#000" points="163.488 -1370.1 163.488 -1494.9 321.386 -1494.9 321.386 -1370.1 163.488 -1370.1"/><text x="242.437" y="-1478.3" fill="#000" font-family="Times,serif" font-size="14" text-anchor="middle">&lt;&lt;Abstract&gt;&gt;</text><text x="242.437" y="-1461.5" fill="#000" font-family="Times,serif" font-size="14" text-anchor="middle">Context</text><polyline fill="none" stroke="#000" points="163.488 -1453.3 321.386 -1453.3"/><polyline fill="none" stroke="#000" points="163.488 -1428.5 321.386 -1428.5"/><text x="171.488" y="-1411.9" fill="#000" font-family="Times,serif" font-size="14" text-anchor="start">Internal:</text><text x="171.488" y="-1395.1" fill="#000" font-family="Times,serif" font-size="14" text-anchor="start">_msgSender(): address</text><text x="171.488" y="-1378.3" fill="#000" font-family="Times,serif" font-size="14" text-anchor="start">_msgData(): bytes</text></g><g id="node2" class="node"><title>1</title><polygon fill="#f2f2f2" stroke="#000" points="0 -1073.9 0 -1282.7 484.874 -1282.7 484.874 -1073.9 0 -1073.9"/><text x="242.437" y="-1266.1" fill="#000" font-family="Times,serif" font-size="14" text-anchor="middle">&lt;&lt;Abstract&gt;&gt;</text><text x="242.437" y="-1249.3" fill="#000" font-family="Times,serif" font-size="14" text-anchor="middle">Ownable</text><polyline fill="none" stroke="#000" points="0 -1241.1 484.874 -1241.1"/><text x="8" y="-1224.5" fill="#000" font-family="Times,serif" font-size="14" text-anchor="start">Private:</text><text x="8" y="-1207.7" fill="#000" font-family="Times,serif" font-size="14" text-anchor="start">_owner: address</text><polyline fill="none" stroke="#000" points="0 -1199.5 484.874 -1199.5"/><text x="8" y="-1182.9" fill="#000" font-family="Times,serif" font-size="14" text-anchor="start">Public:</text><text x="8" y="-1166.1" fill="#000" font-family="Times,serif" font-size="14" text-anchor="start">&lt;&lt;event&gt;&gt; OwnershipTransferred(previousOwner: address, newOwner: address)</text><text x="8" y="-1149.3" fill="#000" font-family="Times,serif" font-size="14" text-anchor="start">&lt;&lt;modifier&gt;&gt; onlyOwner()</text><text x="8" y="-1132.5" fill="#000" font-family="Times,serif" font-size="14" text-anchor="start">constructor()</text><text x="8" y="-1115.7" fill="#000" font-family="Times,serif" font-size="14" text-anchor="start">owner(): address</text><text x="8" y="-1098.9" fill="#000" font-family="Times,serif" font-size="14" text-anchor="start">renounceOwnership()</text><text x="8" y="-1082.1" fill="#000" font-family="Times,serif" font-size="14" text-anchor="start">transferOwnership(newOwner: address)</text></g><g id="edge1" class="edge"><title>1-&gt;0</title><path fill="none" stroke="#000" d="M242.437,-1282.7933C242.437,-1301.6265 242.437,-1321.1438 242.437,-1339.619"/><polygon fill="none" stroke="#000" points="231.937 -1339.903 242.437 -1369.903 252.937 -1339.904 231.937 -1339.903"/></g><g id="node3" class="node"><title>2</title><polygon fill="#f2f2f2" stroke="#000" points="503.137 -1023.5 503.137 -1333.1 941.737 -1333.1 941.737 -1023.5 503.137 -1023.5"/><text x="722.437" y="-1316.5" fill="#000" font-family="Times,serif" font-size="14" text-anchor="middle">&lt;&lt;Interface&gt;&gt;</text><text x="722.437" y="-1299.7" fill="#000" font-family="Times,serif" font-size="14" text-anchor="middle">IBEP20</text><polyline fill="none" stroke="#000" points="503.137 -1291.5 941.737 -1291.5"/><polyline fill="none" stroke="#000" points="503.137 -1266.7 941.737 -1266.7"/><text x="511.137" y="-1250.1" fill="#000" font-family="Times,serif" font-size="14" text-anchor="start">External:</text><text x="511.137" y="-1233.3" fill="#000" font-family="Times,serif" font-size="14" text-anchor="start">name(): string</text><text x="511.137" y="-1216.5" fill="#000" font-family="Times,serif" font-size="14" text-anchor="start">symbol(): string</text><text x="511.137" y="-1199.7" fill="#000" font-family="Times,serif" font-size="14" text-anchor="start">decimals(): uint8</text><text x="511.137" y="-1182.9" fill="#000" font-family="Times,serif" font-size="14" text-anchor="start">totalSupply(): uint256</text><text x="511.137" y="-1166.1" fill="#000" font-family="Times,serif" font-size="14" text-anchor="start">balanceOf(account: address): uint256</text><text x="511.137" y="-1149.3" fill="#000" font-family="Times,serif" font-size="14" text-anchor="start">getOwner(): address</text><text x="511.137" y="-1132.5" fill="#000" font-family="Times,serif" font-size="14" text-anchor="start">transfer(recipient: address, amount: uint256): bool</text><text x="511.137" y="-1115.7" fill="#000" font-family="Times,serif" font-size="14" text-anchor="start">transferFrom(sender: address, recipient: address, amount: uint256): bool</text><text x="511.137" y="-1098.9" fill="#000" font-family="Times,serif" font-size="14" text-anchor="start">approve(spender: address, amount: uint256): bool</text><text x="511.137" y="-1082.1" fill="#000" font-family="Times,serif" font-size="14" text-anchor="start">allowance(_owner: address, spender: address): uint256</text><text x="511.137" y="-1065.3" fill="#000" font-family="Times,serif" font-size="14" text-anchor="start">Public:</text><text x="511.137" y="-1048.5" fill="#000" font-family="Times,serif" font-size="14" text-anchor="start">&lt;&lt;event&gt;&gt; Transfer(from: address, to: address, value: uint256)</text><text x="511.137" y="-1031.7" fill="#000" font-family="Times,serif" font-size="14" text-anchor="start">&lt;&lt;event&gt;&gt; Approval(owner: address, spender: address, value: uint256)</text></g><g id="node4" class="node"><title>3</title><polygon fill="#f2f2f2" stroke="#000" points="376.887 -475.3 376.887 -986.5 811.987 -986.5 811.987 -475.3 376.887 -475.3"/><text x="594.437" y="-969.9" fill="#000" font-family="Times,serif" font-size="14" text-anchor="middle">BEP20</text><polyline fill="none" stroke="#000" points="376.887 -961.7 811.987 -961.7"/><text x="384.887" y="-945.1" fill="#000" font-family="Times,serif" font-size="14" text-anchor="start">Private:</text><text x="384.887" y="-928.3" fill="#000" font-family="Times,serif" font-size="14" text-anchor="start">_balances: mapping(address=&gt;uint256)</text><text x="384.887" y="-911.5" fill="#000" font-family="Times,serif" font-size="14" text-anchor="start">_allowances: mapping(address=&gt;mapping(address=&gt;uint256))</text><text x="384.887" y="-894.7" fill="#000" font-family="Times,serif" font-size="14" text-anchor="start">_totalSupply: uint256</text><text x="384.887" y="-877.9" fill="#000" font-family="Times,serif" font-size="14" text-anchor="start">_name: string</text><text x="384.887" y="-861.1" fill="#000" font-family="Times,serif" font-size="14" text-anchor="start">_symbol: string</text><text x="384.887" y="-844.3" fill="#000" font-family="Times,serif" font-size="14" text-anchor="start">_decimals: uint8</text><polyline fill="none" stroke="#000" points="376.887 -836.1 811.987 -836.1"/><text x="384.887" y="-819.5" fill="#000" font-family="Times,serif" font-size="14" text-anchor="start">Internal:</text><text x="384.887" y="-802.7" fill="#000" font-family="Times,serif" font-size="14" text-anchor="start">_transfer(sender: address, recipient: address, amount: uint256)</text><text x="384.887" y="-785.9" fill="#000" font-family="Times,serif" font-size="14" text-anchor="start">_mint(account: address, amount: uint256)</text><text x="384.887" y="-769.1" fill="#000" font-family="Times,serif" font-size="14" text-anchor="start">_burn(account: address, amount: uint256)</text><text x="384.887" y="-752.3" fill="#000" font-family="Times,serif" font-size="14" text-anchor="start">_approve(owner: address, spender: address, amount: uint256)</text><text x="384.887" y="-735.5" fill="#000" font-family="Times,serif" font-size="14" text-anchor="start">_setupDecimals(decimals_: uint8)</text><text x="384.887" y="-718.7" fill="#000" font-family="Times,serif" font-size="14" text-anchor="start">_beforeTokenTransfer(from: address, to: address, amount: uint256)</text><text x="384.887" y="-701.9" fill="#000" font-family="Times,serif" font-size="14" text-anchor="start">Public:</text><text x="384.887" y="-685.1" fill="#000" font-family="Times,serif" font-size="14" text-anchor="start">constructor(name_: string, symbol_: string)</text><text x="384.887" y="-668.3" fill="#000" font-family="Times,serif" font-size="14" text-anchor="start">name(): string</text><text x="384.887" y="-651.5" fill="#000" font-family="Times,serif" font-size="14" text-anchor="start">symbol(): string</text><text x="384.887" y="-634.7" fill="#000" font-family="Times,serif" font-size="14" text-anchor="start">decimals(): uint8</text><text x="384.887" y="-617.9" fill="#000" font-family="Times,serif" font-size="14" text-anchor="start">totalSupply(): uint256</text><text x="384.887" y="-601.1" fill="#000" font-family="Times,serif" font-size="14" text-anchor="start">balanceOf(account: address): uint256</text><text x="384.887" y="-584.3" fill="#000" font-family="Times,serif" font-size="14" text-anchor="start">getOwner(): address</text><text x="384.887" y="-567.5" fill="#000" font-family="Times,serif" font-size="14" text-anchor="start">transfer(recipient: address, amount: uint256): bool</text><text x="384.887" y="-550.7" fill="#000" font-family="Times,serif" font-size="14" text-anchor="start">transferFrom(sender: address, recipient: address, amount: uint256): bool</text><text x="384.887" y="-533.9" fill="#000" font-family="Times,serif" font-size="14" text-anchor="start">approve(spender: address, amount: uint256): bool</text><text x="384.887" y="-517.1" fill="#000" font-family="Times,serif" font-size="14" text-anchor="start">allowance(owner: address, spender: address): uint256</text><text x="384.887" y="-500.3" fill="#000" font-family="Times,serif" font-size="14" text-anchor="start">increaseAllowance(spender: address, addedValue: uint256): bool</text><text x="384.887" y="-483.5" fill="#000" font-family="Times,serif" font-size="14" text-anchor="start">decreaseAllowance(spender: address, subtractedValue: uint256): bool</text></g><g id="edge2" class="edge"><title>3-&gt;1</title><path fill="none" stroke="#000" d="M393.2485,-986.6151C376.1139,-1008.3936 359.3046,-1029.7587 343.4882,-1049.8616"/><polygon fill="none" stroke="#000" points="335.031 -1043.63 324.733 -1073.7 351.535 -1056.615 335.031 -1043.63"/></g><g id="edge3" class="edge"><title>3-&gt;2</title><path fill="none" stroke="#000" stroke-dasharray="5 2" d="M667.5965,-986.6151C668.3466,-989.237 669.0949,-991.8529 669.8412,-994.4612"/><polygon fill="none" stroke="#000" points="659.757 -997.387 678.104 -1023.342 679.947 -991.611 659.757 -997.387"/></g><g id="node5" class="node"><title>4</title><polygon fill="#f2f2f2" stroke="#000" points="755.905 -195.9 755.905 -421.5 1012.969 -421.5 1012.969 -195.9 755.905 -195.9"/><text x="884.437" y="-404.9" fill="#000" font-family="Times,serif" font-size="14" text-anchor="middle">&lt;&lt;Abstract&gt;&gt;</text><text x="884.437" y="-388.1" fill="#000" font-family="Times,serif" font-size="14" text-anchor="middle">BEP20Mintable</text><polyline fill="none" stroke="#000" points="755.905 -379.9 1012.969 -379.9"/><text x="763.905" y="-363.3" fill="#000" font-family="Times,serif" font-size="14" text-anchor="start">Private:</text><text x="763.905" y="-346.5" fill="#000" font-family="Times,serif" font-size="14" text-anchor="start">_mintingFinished: bool</text><polyline fill="none" stroke="#000" points="755.905 -338.3 1012.969 -338.3"/><text x="763.905" y="-321.7" fill="#000" font-family="Times,serif" font-size="14" text-anchor="start">Internal:</text><text x="763.905" y="-304.9" fill="#000" font-family="Times,serif" font-size="14" text-anchor="start">_finishMinting()</text><text x="763.905" y="-288.1" fill="#000" font-family="Times,serif" font-size="14" text-anchor="start">Public:</text><text x="763.905" y="-271.3" fill="#000" font-family="Times,serif" font-size="14" text-anchor="start">&lt;&lt;event&gt;&gt; MintFinished()</text><text x="763.905" y="-254.5" fill="#000" font-family="Times,serif" font-size="14" text-anchor="start">&lt;&lt;modifier&gt;&gt; canMint()</text><text x="763.905" y="-237.7" fill="#000" font-family="Times,serif" font-size="14" text-anchor="start">mintingFinished(): bool</text><text x="763.905" y="-220.9" fill="#000" font-family="Times,serif" font-size="14" text-anchor="start">mint(account: address, amount: uint256)</text><text x="763.905" y="-204.1" fill="#000" font-family="Times,serif" font-size="14" text-anchor="start">finishMinting()</text></g><g id="edge4" class="edge"><title>4-&gt;3</title><path fill="none" stroke="#000" d="M806.9129,-421.5644C800.5358,-430.8486 793.9346,-440.459 787.1778,-450.296"/><polygon fill="none" stroke="#000" points="778.431 -444.485 770.1 -475.158 795.741 -456.375 778.431 -444.485"/></g><g id="node6" class="node"><title>5</title><polygon fill="#f2f2f2" stroke="#000" points="450.743 -246.3 450.743 -371.1 738.131 -371.1 738.131 -246.3 450.743 -246.3"/><text x="594.437" y="-354.5" fill="#000" font-family="Times,serif" font-size="14" text-anchor="middle">&lt;&lt;Abstract&gt;&gt;</text><text x="594.437" y="-337.7" fill="#000" font-family="Times,serif" font-size="14" text-anchor="middle">BEP20Burnable</text><polyline fill="none" stroke="#000" points="450.743 -329.5 738.131 -329.5"/><polyline fill="none" stroke="#000" points="450.743 -304.7 738.131 -304.7"/><text x="458.743" y="-288.1" fill="#000" font-family="Times,serif" font-size="14" text-anchor="start">Public:</text><text x="458.743" y="-271.3" fill="#000" font-family="Times,serif" font-size="14" text-anchor="start">burn(amount: uint256)</text><text x="458.743" y="-254.5" fill="#000" font-family="Times,serif" font-size="14" text-anchor="start">burnFrom(account: address, amount: uint256)</text></g><g id="edge5" class="edge"><title>5-&gt;3</title><path fill="none" stroke="#000" d="M594.437,-371.4517C594.437,-392.6228 594.437,-417.8191 594.437,-444.9055"/><polygon fill="none" stroke="#000" points="583.937 -444.938 594.437 -474.938 604.937 -444.938 583.937 -444.938"/></g><g id="node7" class="node"><title>6</title><polygon fill="#f2f2f2" stroke="#000" points="3033.019 -1124.3 3033.019 -1232.3 3309.855 -1232.3 3309.855 -1124.3 3033.019 -1124.3"/><text x="3171.437" y="-1215.7" fill="#000" font-family="Times,serif" font-size="14" text-anchor="middle">&lt;&lt;Interface&gt;&gt;</text><text x="3171.437" y="-1198.9" fill="#000" font-family="Times,serif" font-size="14" text-anchor="middle">IERC165</text><polyline fill="none" stroke="#000" points="3033.019 -1190.7 3309.855 -1190.7"/><polyline fill="none" stroke="#000" points="3033.019 -1165.9 3309.855 -1165.9"/><text x="3041.019" y="-1149.3" fill="#000" font-family="Times,serif" font-size="14" text-anchor="start">External:</text><text x="3041.019" y="-1132.5" fill="#000" font-family="Times,serif" font-size="14" text-anchor="start">supportsInterface(interfaceId: bytes4): bool</text></g><g id="node8" class="node"><title>7</title><polygon fill="#f2f2f2" stroke="#000" points="2463.787 -634.9 2463.787 -826.9 3017.086 -826.9 3017.086 -634.9 2463.787 -634.9"/><text x="2740.437" y="-810.3" fill="#000" font-family="Times,serif" font-size="14" text-anchor="middle">&lt;&lt;Interface&gt;&gt;</text><text x="2740.437" y="-793.5" fill="#000" font-family="Times,serif" font-size="14" text-anchor="middle">IBEP20Operable</text><polyline fill="none" stroke="#000" points="2463.787 -785.3 3017.086 -785.3"/><polyline fill="none" stroke="#000" points="2463.787 -760.5 3017.086 -760.5"/><text x="2471.787" y="-743.9" fill="#000" font-family="Times,serif" font-size="14" text-anchor="start">External:</text><text x="2471.787" y="-727.1" fill="#000" font-family="Times,serif" font-size="14" text-anchor="start">transferAndCall(recipient: address, amount: uint256): bool</text><text x="2471.787" y="-710.3" fill="#000" font-family="Times,serif" font-size="14" text-anchor="start">transferAndCall(recipient: address, amount: uint256, data: bytes): bool</text><text x="2471.787" y="-693.5" fill="#000" font-family="Times,serif" font-size="14" text-anchor="start">transferFromAndCall(sender: address, recipient: address, amount: uint256): bool</text><text x="2471.787" y="-676.7" fill="#000" font-family="Times,serif" font-size="14" text-anchor="start">transferFromAndCall(sender: address, recipient: address, amount: uint256, data: bytes): bool</text><text x="2471.787" y="-659.9" fill="#000" font-family="Times,serif" font-size="14" text-anchor="start">approveAndCall(spender: address, amount: uint256): bool</text><text x="2471.787" y="-643.1" fill="#000" font-family="Times,serif" font-size="14" text-anchor="start">approveAndCall(spender: address, amount: uint256, data: bytes): bool</text></g><g id="edge6" class="edge"><title>7-&gt;2</title><path fill="none" stroke="#000" stroke-dasharray="5 2" d="M2661.2708,-827.0497C2608.8489,-883.6384 2535.0678,-950.9779 2454.437,-987 2195.3458,-1102.75 1385.8503,-1151.5854 971.7917,-1169.418"/><polygon fill="none" stroke="#000" points="971.297 -1158.929 941.767 -1170.687 972.183 -1179.911 971.297 -1158.929"/></g><g id="edge7" class="edge"><title>7-&gt;6</title><path fill="none" stroke="#000" stroke-dasharray="5 2" d="M2833.162,-827.1533C2912.5919,-909.6056 3025.4158,-1026.7226 3098.523,-1102.6116"/><polygon fill="none" stroke="#000" points="3091.023 -1109.96 3119.398 -1124.281 3106.147 -1095.391 3091.023 -1109.96"/></g><g id="node9" class="node"><title>8</title><polygon fill="#f2f2f2" stroke="#000" points="829.638 -676.9 829.638 -784.9 1385.236 -784.9 1385.236 -676.9 829.638 -676.9"/><text x="1107.437" y="-768.3" fill="#000" font-family="Times,serif" font-size="14" text-anchor="middle">&lt;&lt;Interface&gt;&gt;</text><text x="1107.437" y="-751.5" fill="#000" font-family="Times,serif" font-size="14" text-anchor="middle">IBEP20OperableReceiver</text><polyline fill="none" stroke="#000" points="829.638 -743.3 1385.236 -743.3"/><polyline fill="none" stroke="#000" points="829.638 -718.5 1385.236 -718.5"/><text x="837.638" y="-701.9" fill="#000" font-family="Times,serif" font-size="14" text-anchor="start">External:</text><text x="837.638" y="-685.1" fill="#000" font-family="Times,serif" font-size="14" text-anchor="start">onTransferReceived(operator: address, sender: address, amount: uint256, data: bytes): bytes4</text></g><g id="node10" class="node"><title>9</title><polygon fill="#f2f2f2" stroke="#000" points="1403.411 -676.9 1403.411 -784.9 1861.463 -784.9 1861.463 -676.9 1403.411 -676.9"/><text x="1632.437" y="-768.3" fill="#000" font-family="Times,serif" font-size="14" text-anchor="middle">&lt;&lt;Interface&gt;&gt;</text><text x="1632.437" y="-751.5" fill="#000" font-family="Times,serif" font-size="14" text-anchor="middle">IBEP20OperableSpender</text><polyline fill="none" stroke="#000" points="1403.411 -743.3 1861.463 -743.3"/><polyline fill="none" stroke="#000" points="1403.411 -718.5 1861.463 -718.5"/><text x="1411.411" y="-701.9" fill="#000" font-family="Times,serif" font-size="14" text-anchor="start">External:</text><text x="1411.411" y="-685.1" fill="#000" font-family="Times,serif" font-size="14" text-anchor="start">onApprovalReceived(sender: address, amount: uint256, data: bytes): bytes4</text></g><g id="node11" class="node"><title>10</title><polygon fill="#f2f2f2" stroke="#000" points="1879.379 -584.5 1879.379 -877.3 2445.495 -877.3 2445.495 -584.5 1879.379 -584.5"/><text x="2162.437" y="-860.7" fill="#000" font-family="Times,serif" font-size="14" text-anchor="middle">&lt;&lt;Library&gt;&gt;</text><text x="2162.437" y="-843.9" fill="#000" font-family="Times,serif" font-size="14" text-anchor="middle">Address</text><polyline fill="none" stroke="#000" points="1879.379 -835.7 2445.495 -835.7"/><polyline fill="none" stroke="#000" points="1879.379 -810.9 2445.495 -810.9"/><text x="1887.379" y="-794.3" fill="#000" font-family="Times,serif" font-size="14" text-anchor="start">Private:</text><text x="1887.379" y="-777.5" fill="#000" font-family="Times,serif" font-size="14" text-anchor="start">_verifyCallResult(success: bool, returndata: bytes, errorMessage: string): bytes</text><text x="1887.379" y="-760.7" fill="#000" font-family="Times,serif" font-size="14" text-anchor="start">Internal:</text><text x="1887.379" y="-743.9" fill="#000" font-family="Times,serif" font-size="14" text-anchor="start">isContract(account: address): bool</text><text x="1887.379" y="-727.1" fill="#000" font-family="Times,serif" font-size="14" text-anchor="start">sendValue(recipient: address, amount: uint256)</text><text x="1887.379" y="-710.3" fill="#000" font-family="Times,serif" font-size="14" text-anchor="start">functionCall(target: address, data: bytes): bytes</text><text x="1887.379" y="-693.5" fill="#000" font-family="Times,serif" font-size="14" text-anchor="start">functionCall(target: address, data: bytes, errorMessage: string): bytes</text><text x="1887.379" y="-676.7" fill="#000" font-family="Times,serif" font-size="14" text-anchor="start">functionCallWithValue(target: address, data: bytes, value: uint256): bytes</text><text x="1887.379" y="-659.9" fill="#000" font-family="Times,serif" font-size="14" text-anchor="start">functionCallWithValue(target: address, data: bytes, value: uint256, errorMessage: string): bytes</text><text x="1887.379" y="-643.1" fill="#000" font-family="Times,serif" font-size="14" text-anchor="start">functionStaticCall(target: address, data: bytes): bytes</text><text x="1887.379" y="-626.3" fill="#000" font-family="Times,serif" font-size="14" text-anchor="start">functionStaticCall(target: address, data: bytes, errorMessage: string): bytes</text><text x="1887.379" y="-609.5" fill="#000" font-family="Times,serif" font-size="14" text-anchor="start">functionDelegateCall(target: address, data: bytes): bytes</text><text x="1887.379" y="-592.7" fill="#000" font-family="Times,serif" font-size="14" text-anchor="start">functionDelegateCall(target: address, data: bytes, errorMessage: string): bytes</text></g><g id="node12" class="node"><title>11</title><polygon fill="#f2f2f2" stroke="#000" points="3326.445 -626.5 3326.445 -835.3 3756.429 -835.3 3756.429 -626.5 3326.445 -626.5"/><text x="3541.437" y="-818.7" fill="#000" font-family="Times,serif" font-size="14" text-anchor="middle">&lt;&lt;Library&gt;&gt;</text><text x="3541.437" y="-801.9" fill="#000" font-family="Times,serif" font-size="14" text-anchor="middle">ERC165Checker</text><polyline fill="none" stroke="#000" points="3326.445 -793.7 3756.429 -793.7"/><text x="3334.445" y="-777.1" fill="#000" font-family="Times,serif" font-size="14" text-anchor="start">Private:</text><text x="3334.445" y="-760.3" fill="#000" font-family="Times,serif" font-size="14" text-anchor="start">_INTERFACE_ID_INVALID: bytes4</text><polyline fill="none" stroke="#000" points="3326.445 -752.1 3756.429 -752.1"/><text x="3334.445" y="-735.5" fill="#000" font-family="Times,serif" font-size="14" text-anchor="start">Private:</text><text x="3334.445" y="-718.7" fill="#000" font-family="Times,serif" font-size="14" text-anchor="start">_supportsERC165Interface(account: address, interfaceId: bytes4): bool</text><text x="3334.445" y="-701.9" fill="#000" font-family="Times,serif" font-size="14" text-anchor="start">Internal:</text><text x="3334.445" y="-685.1" fill="#000" font-family="Times,serif" font-size="14" text-anchor="start">supportsERC165(account: address): bool</text><text x="3334.445" y="-668.3" fill="#000" font-family="Times,serif" font-size="14" text-anchor="start">supportsInterface(account: address, interfaceId: bytes4): bool</text><text x="3334.445" y="-651.5" fill="#000" font-family="Times,serif" font-size="14" text-anchor="start">getSupportedInterfaces(account: address, interfaceIds: bytes4[]): bool[]</text><text x="3334.445" y="-634.7" fill="#000" font-family="Times,serif" font-size="14" text-anchor="start">supportsAllInterfaces(account: address, interfaceIds: bytes4[]): bool</text></g><g id="edge8" class="edge"><title>11-&gt;6</title><path fill="none" stroke="#000" stroke-dasharray="5 2" d="M3454.922,-835.513C3382.8012,-922.7207 3282.4947,-1044.0103 3222.5569,-1116.4864"/><polygon fill="#000" stroke="#000" points="3219.845 -1114.274 3216.169 -1124.21 3225.239 -1118.735 3219.845 -1114.274"/></g><g id="node13" class="node"><title>12</title><polygon fill="#f2f2f2" stroke="#000" points="3034.769 -676.9 3034.769 -784.9 3308.105 -784.9 3308.105 -676.9 3034.769 -676.9"/><text x="3171.437" y="-768.3" fill="#000" font-family="Times,serif" font-size="14" text-anchor="middle">&lt;&lt;Abstract&gt;&gt;</text><text x="3171.437" y="-751.5" fill="#000" font-family="Times,serif" font-size="14" text-anchor="middle">ERC165</text><polyline fill="none" stroke="#000" points="3034.769 -743.3 3308.105 -743.3"/><polyline fill="none" stroke="#000" points="3034.769 -718.5 3308.105 -718.5"/><text x="3042.769" y="-701.9" fill="#000" font-family="Times,serif" font-size="14" text-anchor="start">Public:</text><text x="3042.769" y="-685.1" fill="#000" font-family="Times,serif" font-size="14" text-anchor="start">supportsInterface(interfaceId: bytes4): bool</text></g><g id="edge9" class="edge"><title>12-&gt;6</title><path fill="none" stroke="#000" stroke-dasharray="5 2" d="M3171.437,-785.3127C3171.437,-862.2212 3171.437,-1003.4198 3171.437,-1093.9723"/><polygon fill="none" stroke="#000" points="3160.937 -1094.265 3171.437 -1124.265 3181.937 -1094.265 3160.937 -1094.265"/></g><g id="node14" class="node"><title>13</title><polygon fill="#f2f2f2" stroke="#000" points="1030.552 -179.1 1030.552 -438.3 1594.322 -438.3 1594.322 -179.1 1030.552 -179.1"/><text x="1312.437" y="-421.7" fill="#000" font-family="Times,serif" font-size="14" text-anchor="middle">&lt;&lt;Abstract&gt;&gt;</text><text x="1312.437" y="-404.9" fill="#000" font-family="Times,serif" font-size="14" text-anchor="middle">BEP20Operable</text><polyline fill="none" stroke="#000" points="1030.552 -396.7 1594.322 -396.7"/><polyline fill="none" stroke="#000" points="1030.552 -371.9 1594.322 -371.9"/><text x="1038.552" y="-355.3" fill="#000" font-family="Times,serif" font-size="14" text-anchor="start">Internal:</text><text x="1038.552" y="-338.5" fill="#000" font-family="Times,serif" font-size="14" text-anchor="start">_checkAndCallTransfer(sender: address, recipient: address, amount: uint256, data: bytes): bool</text><text x="1038.552" y="-321.7" fill="#000" font-family="Times,serif" font-size="14" text-anchor="start">_checkAndCallApprove(spender: address, amount: uint256, data: bytes): bool</text><text x="1038.552" y="-304.9" fill="#000" font-family="Times,serif" font-size="14" text-anchor="start">Public:</text><text x="1038.552" y="-288.1" fill="#000" font-family="Times,serif" font-size="14" text-anchor="start">supportsInterface(interfaceId: bytes4): bool</text><text x="1038.552" y="-271.3" fill="#000" font-family="Times,serif" font-size="14" text-anchor="start">transferAndCall(recipient: address, amount: uint256): bool</text><text x="1038.552" y="-254.5" fill="#000" font-family="Times,serif" font-size="14" text-anchor="start">transferAndCall(recipient: address, amount: uint256, data: bytes): bool</text><text x="1038.552" y="-237.7" fill="#000" font-family="Times,serif" font-size="14" text-anchor="start">transferFromAndCall(sender: address, recipient: address, amount: uint256): bool</text><text x="1038.552" y="-220.9" fill="#000" font-family="Times,serif" font-size="14" text-anchor="start">transferFromAndCall(sender: address, recipient: address, amount: uint256, data: bytes): bool</text><text x="1038.552" y="-204.1" fill="#000" font-family="Times,serif" font-size="14" text-anchor="start">approveAndCall(spender: address, amount: uint256): bool</text><text x="1038.552" y="-187.3" fill="#000" font-family="Times,serif" font-size="14" text-anchor="start">approveAndCall(spender: address, amount: uint256, data: bytes): bool</text></g><g id="edge10" class="edge"><title>13-&gt;3</title><path fill="none" stroke="#000" d="M1030.3685,-436.3089C1027.7179,-437.1565 1025.0736,-437.9872 1022.437,-438.8 944.8232,-462.7268 908.2871,-437.1474 839.3462,-466.1582"/><polygon fill="none" stroke="#000" points="834.583 -456.8 812.345 -479.509 843.891 -475.624 834.583 -456.8"/></g><g id="edge11" class="edge"><title>13-&gt;7</title><path fill="none" stroke="#000" stroke-dasharray="5 2" d="M1594.5298,-436.6177C1597.5048,-437.3741 1600.4744,-438.1021 1603.437,-438.8 1787.6744,-482.2004 2279.1041,-403.4882 2454.437,-474.8 2526.826,-504.2422 2592.9001,-560.4373 2643.2587,-612.7031"/><polygon fill="none" stroke="#000" points="2635.708 -620.001 2663.851 -634.773 2651.062 -605.675 2635.708 -620.001"/></g><g id="edge14" class="edge"><title>13-&gt;8</title><path fill="none" stroke="#000" stroke-dasharray="5 2" d="M1249.3973,-438.531C1212.4621,-514.5996 1167.4591,-607.2837 1138.1623,-667.6208"/><polygon fill="#000" stroke="#000" points="1134.997 -666.126 1133.778 -676.651 1141.294 -669.184 1134.997 -666.126"/></g><g id="edge15" class="edge"><title>13-&gt;9</title><path fill="none" stroke="#000" stroke-dasharray="5 2" d="M1410.8404,-438.531C1468.7322,-514.912 1539.3211,-608.0452 1585.0377,-668.3626"/><polygon fill="#000" stroke="#000" points="1582.49 -670.795 1591.32 -676.651 1588.069 -666.567 1582.49 -670.795"/></g><g id="edge13" class="edge"><title>13-&gt;10</title><path fill="none" stroke="#000" stroke-dasharray="5 2" d="M1594.6307,-436.2296C1597.5735,-437.1097 1600.5095,-437.967 1603.437,-438.8 1718.6057,-471.5712 1761.4482,-425.2096 1870.437,-474.8 1924.8296,-499.5489 1976.5567,-537.8543 2020.9453,-577.3641"/><polygon fill="#000" stroke="#000" points="2018.8 -580.142 2028.574 -584.231 2023.483 -574.939 2018.8 -580.142"/></g><g id="edge12" class="edge"><title>13-&gt;12</title><path fill="none" stroke="#000" d="M1594.5131,-436.6901C1597.4934,-437.4234 1600.4686,-438.1273 1603.437,-438.8 1680.5622,-456.2783 2958.6271,-434.111 3026.437,-474.8 3089.3522,-512.5519 3127.3094,-588.5363 3148.5116,-647.9806"/><polygon fill="none" stroke="#000" points="3138.655 -651.62 3157.989 -676.848 3158.607 -645.07 3138.655 -651.62"/></g><g id="node15" class="node"><title>14</title><polygon fill="#f2f2f2" stroke="#000" points="51.703 -263.1 51.703 -354.3 433.171 -354.3 433.171 -263.1 51.703 -263.1"/><text x="242.437" y="-337.7" fill="#000" font-family="Times,serif" font-size="14" text-anchor="middle">TokenRecover</text><polyline fill="none" stroke="#000" points="51.703 -329.5 433.171 -329.5"/><polyline fill="none" stroke="#000" points="51.703 -304.7 433.171 -304.7"/><text x="59.703" y="-288.1" fill="#000" font-family="Times,serif" font-size="14" text-anchor="start">Public:</text><text x="59.703" y="-271.3" fill="#000" font-family="Times,serif" font-size="14" text-anchor="start">recoverBEP20(tokenAddress: address, tokenAmount: uint256)</text></g><g id="edge16" class="edge"><title>14-&gt;1</title><path fill="none" stroke="#000" d="M242.437,-354.5339C242.437,-482.0341 242.437,-844.5585 242.437,-1043.5208"/><polygon fill="none" stroke="#000" points="231.937 -1043.695 242.437 -1073.695 252.937 -1043.695 231.937 -1043.695"/></g><g id="edge17" class="edge"><title>14-&gt;2</title><path fill="none" stroke="#000" stroke-dasharray="5 2" d="M248.0437,-354.4111C266.1597,-498.9977 324.4404,-939.6613 367.437,-987 406.5948,-1030.1123 440.672,-998.3453 493.437,-1023 493.5356,-1023.0461 493.6342,-1023.0922 493.7328,-1023.1383"/><polygon fill="#000" stroke="#000" points="492.385 -1026.373 502.915 -1027.543 495.412 -1020.062 492.385 -1026.373"/></g><g id="node16" class="node"><title>15</title><polygon fill="#f2f2f2" stroke="#000" points="1207.748 -17.3 1207.748 -125.3 1383.126 -125.3 1383.126 -17.3 1207.748 -17.3"/><text x="1295.437" y="-108.7" fill="#000" font-family="Times,serif" font-size="14" text-anchor="middle">&lt;&lt;Interface&gt;&gt;</text><text x="1295.437" y="-91.9" fill="#000" font-family="Times,serif" font-size="14" text-anchor="middle">IPayable</text><polyline fill="none" stroke="#000" points="1207.748 -83.7 1383.126 -83.7"/><polyline fill="none" stroke="#000" points="1207.748 -58.9 1383.126 -58.9"/><text x="1215.748" y="-42.3" fill="#000" font-family="Times,serif" font-size="14" text-anchor="start">External:</text><text x="1215.748" y="-25.5" fill="#000" font-family="Times,serif" font-size="14" text-anchor="start">pay(serviceName: string)</text></g><g id="node17" class="node"><title>16</title><polygon fill="#f2f2f2" stroke="#000" points="1612.397 -254.7 1612.397 -362.7 1928.477 -362.7 1928.477 -254.7 1612.397 -254.7"/><text x="1770.437" y="-346.1" fill="#000" font-family="Times,serif" font-size="14" text-anchor="middle">&lt;&lt;Abstract&gt;&gt;</text><text x="1770.437" y="-329.3" fill="#000" font-family="Times,serif" font-size="14" text-anchor="middle">ServicePayer</text><polyline fill="none" stroke="#000" points="1612.397 -321.1 1928.477 -321.1"/><polyline fill="none" stroke="#000" points="1612.397 -296.3 1928.477 -296.3"/><text x="1620.397" y="-279.7" fill="#000" font-family="Times,serif" font-size="14" text-anchor="start">Public:</text><text x="1620.397" y="-262.9" fill="#000" font-family="Times,serif" font-size="14" text-anchor="start">constructor(receiver: address, serviceName: string)</text></g><g id="node18" class="node"><title>17</title><polygon fill="#f2f2f2" stroke="#000" points="579.207 -.5 579.207 -142.1 1189.667 -142.1 1189.667 -.5 579.207 -.5"/><text x="884.437" y="-125.5" fill="#000" font-family="Times,serif" font-size="14" text-anchor="middle">AmazingBEP20</text><polyline fill="none" stroke="#000" points="579.207 -117.3 1189.667 -117.3"/><polyline fill="none" stroke="#000" points="579.207 -92.5 1189.667 -92.5"/><text x="587.207" y="-75.9" fill="#000" font-family="Times,serif" font-size="14" text-anchor="start">Internal:</text><text x="587.207" y="-59.1" fill="#000" font-family="Times,serif" font-size="14" text-anchor="start">_mint(account: address, amount: uint256)</text><text x="587.207" y="-42.3" fill="#000" font-family="Times,serif" font-size="14" text-anchor="start">_finishMinting()</text><text x="587.207" y="-25.5" fill="#000" font-family="Times,serif" font-size="14" text-anchor="start">Public:</text><text x="587.207" y="-8.7" fill="#000" font-family="Times,serif" font-size="14" text-anchor="start">constructor(name: string, symbol: string, decimals: uint8, initialBalance: uint256, feeReceiver: address)</text></g><g id="edge18" class="edge"><title>17-&gt;4</title><path fill="none" stroke="#000" d="M884.437,-142.2063C884.437,-149.6899 884.437,-157.4777 884.437,-165.4191"/><polygon fill="none" stroke="#000" points="873.937 -165.518 884.437 -195.518 894.937 -165.518 873.937 -165.518"/></g><g id="edge19" class="edge"><title>17-&gt;5</title><path fill="none" stroke="#000" d="M791.9158,-142.2731C776.6269,-154.2769 761.0155,-166.7043 746.437,-178.6 727.6943,-193.8936 707.9002,-210.4944 689.0139,-226.5595"/><polygon fill="none" stroke="#000" points="682.115 -218.643 666.143 -246.123 695.766 -234.601 682.115 -218.643"/></g><g id="edge20" class="edge"><title>17-&gt;13</title><path fill="none" stroke="#000" d="M1012.2714,-142.2063C1025.1052,-149.3248 1038.4353,-156.7187 1052.0279,-164.2581"/><polygon fill="none" stroke="#000" points="1047.102 -173.533 1078.429 -178.902 1057.288 -155.168 1047.102 -173.533"/></g><g id="edge21" class="edge"><title>17-&gt;14</title><path fill="none" stroke="#000" d="M579.0761,-130.6927C532.1028,-143.9695 484.8321,-159.8254 441.437,-178.6 401.037,-196.0789 359.7627,-221.5722 325.3534,-245.3695"/><polygon fill="none" stroke="#000" points="319.128 -236.912 300.787 -262.871 331.313 -254.016 319.128 -236.912"/></g><g id="edge22" class="edge"><title>17-&gt;16</title><path fill="none" stroke="#000" d="M1189.7017,-141.1991C1192.6254,-141.6769 1195.5378,-142.1441 1198.437,-142.6 1376.9531,-170.6711 1435.3013,-112.3701 1603.437,-178.6 1636.1631,-191.491 1667.7598,-212.926 1694.498,-234.7152"/><polygon fill="none" stroke="#000" points="1687.995 -242.972 1717.581 -254.59 1701.698 -227.059 1687.995 -242.972"/></g></g></svg>