<svg xmlns="http://www.w3.org/2000/svg" xmlns:xlink="http://www.w3.org/1999/xlink" width="1532" height="1780" viewBox="0 0 1149.13 1335.4"><g id="graph0" class="graph" transform="scale(1 1) rotate(0) translate(4 1331.4)"><title>UmlClassDiagram</title><polygon fill="#fff" stroke="transparent" points="-4 4 -4 -1331.4 1145.126 -1331.4 1145.126 4 -4 4"/><g id="node1" class="node"><title>0</title><polygon fill="#f2f2f2" stroke="#000" points="163.488 -1202.1 163.488 -1326.9 321.386 -1326.9 321.386 -1202.1 163.488 -1202.1"/><text x="242.437" y="-1310.3" fill="#000" font-family="Times,serif" font-size="14" text-anchor="middle">&lt;&lt;Abstract&gt;&gt;</text><text x="242.437" y="-1293.5" fill="#000" font-family="Times,serif" font-size="14" text-anchor="middle">Context</text><polyline fill="none" stroke="#000" points="163.488 -1285.3 321.386 -1285.3"/><polyline fill="none" stroke="#000" points="163.488 -1260.5 321.386 -1260.5"/><text x="171.488" y="-1243.9" fill="#000" font-family="Times,serif" font-size="14" text-anchor="start">Internal:</text><text x="171.488" y="-1227.1" fill="#000" font-family="Times,serif" font-size="14" text-anchor="start">_msgSender(): address</text><text x="171.488" y="-1210.3" fill="#000" font-family="Times,serif" font-size="14" text-anchor="start">_msgData(): bytes</text></g><g id="node2" class="node"><title>1</title><polygon fill="#f2f2f2" stroke="#000" points="0 -905.9 0 -1114.7 484.874 -1114.7 484.874 -905.9 0 -905.9"/><text x="242.437" y="-1098.1" fill="#000" font-family="Times,serif" font-size="14" text-anchor="middle">&lt;&lt;Abstract&gt;&gt;</text><text x="242.437" y="-1081.3" fill="#000" font-family="Times,serif" font-size="14" text-anchor="middle">Ownable</text><polyline fill="none" stroke="#000" points="0 -1073.1 484.874 -1073.1"/><text x="8" y="-1056.5" fill="#000" font-family="Times,serif" font-size="14" text-anchor="start">Private:</text><text x="8" y="-1039.7" fill="#000" font-family="Times,serif" font-size="14" text-anchor="start">_owner: address</text><polyline fill="none" stroke="#000" points="0 -1031.5 484.874 -1031.5"/><text x="8" y="-1014.9" fill="#000" font-family="Times,serif" font-size="14" text-anchor="start">Public:</text><text x="8" y="-998.1" fill="#000" font-family="Times,serif" font-size="14" text-anchor="start">&lt;&lt;event&gt;&gt; OwnershipTransferred(previousOwner: address, newOwner: address)</text><text x="8" y="-981.3" fill="#000" font-family="Times,serif" font-size="14" text-anchor="start">&lt;&lt;modifier&gt;&gt; onlyOwner()</text><text x="8" y="-964.5" fill="#000" font-family="Times,serif" font-size="14" text-anchor="start">constructor()</text><text x="8" y="-947.7" fill="#000" font-family="Times,serif" font-size="14" text-anchor="start">owner(): address</text><text x="8" y="-930.9" fill="#000" font-family="Times,serif" font-size="14" text-anchor="start">renounceOwnership()</text><text x="8" y="-914.1" fill="#000" font-family="Times,serif" font-size="14" text-anchor="start">transferOwnership(newOwner: address)</text></g><g id="edge1" class="edge"><title>1-&gt;0</title><path fill="none" stroke="#000" d="M242.437,-1114.7933C242.437,-1133.6265 242.437,-1153.1438 242.437,-1171.619"/><polygon fill="none" stroke="#000" points="231.937 -1171.903 242.437 -1201.903 252.937 -1171.904 231.937 -1171.903"/></g><g id="node3" class="node"><title>2</title><polygon fill="#f2f2f2" stroke="#000" points="503.137 -855.5 503.137 -1165.1 941.737 -1165.1 941.737 -855.5 503.137 -855.5"/><text x="722.437" y="-1148.5" fill="#000" font-family="Times,serif" font-size="14" text-anchor="middle">&lt;&lt;Interface&gt;&gt;</text><text x="722.437" y="-1131.7" fill="#000" font-family="Times,serif" font-size="14" text-anchor="middle">IBEP20</text><polyline fill="none" stroke="#000" points="503.137 -1123.5 941.737 -1123.5"/><polyline fill="none" stroke="#000" points="503.137 -1098.7 941.737 -1098.7"/><text x="511.137" y="-1082.1" fill="#000" font-family="Times,serif" font-size="14" text-anchor="start">External:</text><text x="511.137" y="-1065.3" fill="#000" font-family="Times,serif" font-size="14" text-anchor="start">name(): string</text><text x="511.137" y="-1048.5" fill="#000" font-family="Times,serif" font-size="14" text-anchor="start">symbol(): string</text><text x="511.137" y="-1031.7" fill="#000" font-family="Times,serif" font-size="14" text-anchor="start">decimals(): uint8</text><text x="511.137" y="-1014.9" fill="#000" font-family="Times,serif" font-size="14" text-anchor="start">totalSupply(): uint256</text><text x="511.137" y="-998.1" fill="#000" font-family="Times,serif" font-size="14" text-anchor="start">balanceOf(account: address): uint256</text><text x="511.137" y="-981.3" fill="#000" font-family="Times,serif" font-size="14" text-anchor="start">getOwner(): address</text><text x="511.137" y="-964.5" fill="#000" font-family="Times,serif" font-size="14" text-anchor="start">transfer(recipient: address, amount: uint256): bool</text><text x="511.137" y="-947.7" fill="#000" font-family="Times,serif" font-size="14" text-anchor="start">transferFrom(sender: address, recipient: address, amount: uint256): bool</text><text x="511.137" y="-930.9" fill="#000" font-family="Times,serif" font-size="14" text-anchor="start">approve(spender: address, amount: uint256): bool</text><text x="511.137" y="-914.1" fill="#000" font-family="Times,serif" font-size="14" text-anchor="start">allowance(_owner: address, spender: address): uint256</text><text x="511.137" y="-897.3" fill="#000" font-family="Times,serif" font-size="14" text-anchor="start">Public:</text><text x="511.137" y="-880.5" fill="#000" font-family="Times,serif" font-size="14" text-anchor="start">&lt;&lt;event&gt;&gt; Transfer(from: address, to: address, value: uint256)</text><text x="511.137" y="-863.7" fill="#000" font-family="Times,serif" font-size="14" text-anchor="start">&lt;&lt;event&gt;&gt; Approval(owner: address, spender: address, value: uint256)</text></g><g id="node4" class="node"><title>3</title><polygon fill="#f2f2f2" stroke="#000" points="264.887 -307.3 264.887 -818.5 699.987 -818.5 699.987 -307.3 264.887 -307.3"/><text x="482.437" y="-801.9" fill="#000" font-family="Times,serif" font-size="14" text-anchor="middle">BEP20</text><polyline fill="none" stroke="#000" points="264.887 -793.7 699.987 -793.7"/><text x="272.887" y="-777.1" fill="#000" font-family="Times,serif" font-size="14" text-anchor="start">Private:</text><text x="272.887" y="-760.3" fill="#000" font-family="Times,serif" font-size="14" text-anchor="start">_balances: mapping(address=&gt;uint256)</text><text x="272.887" y="-743.5" fill="#000" font-family="Times,serif" font-size="14" text-anchor="start">_allowances: mapping(address=&gt;mapping(address=&gt;uint256))</text><text x="272.887" y="-726.7" fill="#000" font-family="Times,serif" font-size="14" text-anchor="start">_totalSupply: uint256</text><text x="272.887" y="-709.9" fill="#000" font-family="Times,serif" font-size="14" text-anchor="start">_name: string</text><text x="272.887" y="-693.1" fill="#000" font-family="Times,serif" font-size="14" text-anchor="start">_symbol: string</text><text x="272.887" y="-676.3" fill="#000" font-family="Times,serif" font-size="14" text-anchor="start">_decimals: uint8</text><polyline fill="none" stroke="#000" points="264.887 -668.1 699.987 -668.1"/><text x="272.887" y="-651.5" fill="#000" font-family="Times,serif" font-size="14" text-anchor="start">Internal:</text><text x="272.887" y="-634.7" fill="#000" font-family="Times,serif" font-size="14" text-anchor="start">_transfer(sender: address, recipient: address, amount: uint256)</text><text x="272.887" y="-617.9" fill="#000" font-family="Times,serif" font-size="14" text-anchor="start">_mint(account: address, amount: uint256)</text><text x="272.887" y="-601.1" fill="#000" font-family="Times,serif" font-size="14" text-anchor="start">_burn(account: address, amount: uint256)</text><text x="272.887" y="-584.3" fill="#000" font-family="Times,serif" font-size="14" text-anchor="start">_approve(owner: address, spender: address, amount: uint256)</text><text x="272.887" y="-567.5" fill="#000" font-family="Times,serif" font-size="14" text-anchor="start">_setupDecimals(decimals_: uint8)</text><text x="272.887" y="-550.7" fill="#000" font-family="Times,serif" font-size="14" text-anchor="start">_beforeTokenTransfer(from: address, to: address, amount: uint256)</text><text x="272.887" y="-533.9" fill="#000" font-family="Times,serif" font-size="14" text-anchor="start">Public:</text><text x="272.887" y="-517.1" fill="#000" font-family="Times,serif" font-size="14" text-anchor="start">constructor(name_: string, symbol_: string)</text><text x="272.887" y="-500.3" fill="#000" font-family="Times,serif" font-size="14" text-anchor="start">name(): string</text><text x="272.887" y="-483.5" fill="#000" font-family="Times,serif" font-size="14" text-anchor="start">symbol(): string</text><text x="272.887" y="-466.7" fill="#000" font-family="Times,serif" font-size="14" text-anchor="start">decimals(): uint8</text><text x="272.887" y="-449.9" fill="#000" font-family="Times,serif" font-size="14" text-anchor="start">totalSupply(): uint256</text><text x="272.887" y="-433.1" fill="#000" font-family="Times,serif" font-size="14" text-anchor="start">balanceOf(account: address): uint256</text><text x="272.887" y="-416.3" fill="#000" font-family="Times,serif" font-size="14" text-anchor="start">getOwner(): address</text><text x="272.887" y="-399.5" fill="#000" font-family="Times,serif" font-size="14" text-anchor="start">transfer(recipient: address, amount: uint256): bool</text><text x="272.887" y="-382.7" fill="#000" font-family="Times,serif" font-size="14" text-anchor="start">transferFrom(sender: address, recipient: address, amount: uint256): bool</text><text x="272.887" y="-365.9" fill="#000" font-family="Times,serif" font-size="14" text-anchor="start">approve(spender: address, amount: uint256): bool</text><text x="272.887" y="-349.1" fill="#000" font-family="Times,serif" font-size="14" text-anchor="start">allowance(owner: address, spender: address): uint256</text><text x="272.887" y="-332.3" fill="#000" font-family="Times,serif" font-size="14" text-anchor="start">increaseAllowance(spender: address, addedValue: uint256): bool</text><text x="272.887" y="-315.5" fill="#000" font-family="Times,serif" font-size="14" text-anchor="start">decreaseAllowance(spender: address, subtractedValue: uint256): bool</text></g><g id="edge2" class="edge"><title>3-&gt;1</title><path fill="none" stroke="#000" d="M345.263,-818.6151C334.0939,-839.4363 323.1274,-859.8796 312.7615,-879.2034"/><polygon fill="none" stroke="#000" points="303.477 -874.3 298.548 -905.7 321.982 -884.227 303.477 -874.3"/></g><g id="edge3" class="edge"><title>3-&gt;2</title><path fill="none" stroke="#000" stroke-dasharray="5 2" d="M619.611,-818.6151C621.4341,-822.0138 623.2519,-825.4025 625.0626,-828.7778"/><polygon fill="none" stroke="#000" points="615.878 -833.869 639.313 -855.342 634.384 -823.942 615.878 -833.869"/></g><g id="node5" class="node"><title>4</title><polygon fill="#f2f2f2" stroke="#000" points="338.743 -145.5 338.743 -270.3 626.131 -270.3 626.131 -145.5 338.743 -145.5"/><text x="482.437" y="-253.7" fill="#000" font-family="Times,serif" font-size="14" text-anchor="middle">&lt;&lt;Abstract&gt;&gt;</text><text x="482.437" y="-236.9" fill="#000" font-family="Times,serif" font-size="14" text-anchor="middle">BEP20Burnable</text><polyline fill="none" stroke="#000" points="338.743 -228.7 626.131 -228.7"/><polyline fill="none" stroke="#000" points="338.743 -203.9 626.131 -203.9"/><text x="346.743" y="-187.3" fill="#000" font-family="Times,serif" font-size="14" text-anchor="start">Public:</text><text x="346.743" y="-170.5" fill="#000" font-family="Times,serif" font-size="14" text-anchor="start">burn(amount: uint256)</text><text x="346.743" y="-153.7" fill="#000" font-family="Times,serif" font-size="14" text-anchor="start">burnFrom(account: address, amount: uint256)</text></g><g id="edge4" class="edge"><title>4-&gt;3</title><path fill="none" stroke="#000" d="M482.437,-270.5497C482.437,-272.6584 482.437,-274.805 482.437,-276.987"/><polygon fill="none" stroke="#000" points="471.937 -277.148 482.437 -307.148 492.937 -277.148 471.937 -277.148"/></g><g id="node6" class="node"><title>5</title><polygon fill="#f2f2f2" stroke="#000" points="965.748 -.5 965.748 -108.5 1141.126 -108.5 1141.126 -.5 965.748 -.5"/><text x="1053.437" y="-91.9" fill="#000" font-family="Times,serif" font-size="14" text-anchor="middle">&lt;&lt;Interface&gt;&gt;</text><text x="1053.437" y="-75.1" fill="#000" font-family="Times,serif" font-size="14" text-anchor="middle">IPayable</text><polyline fill="none" stroke="#000" points="965.748 -66.9 1141.126 -66.9"/><polyline fill="none" stroke="#000" points="965.748 -42.1 1141.126 -42.1"/><text x="973.748" y="-25.5" fill="#000" font-family="Times,serif" font-size="14" text-anchor="start">External:</text><text x="973.748" y="-8.7" fill="#000" font-family="Times,serif" font-size="14" text-anchor="start">pay(serviceName: string)</text></g><g id="node7" class="node"><title>6</title><polygon fill="#f2f2f2" stroke="#000" points="644.397 -153.9 644.397 -261.9 960.477 -261.9 960.477 -153.9 644.397 -153.9"/><text x="802.437" y="-245.3" fill="#000" font-family="Times,serif" font-size="14" text-anchor="middle">&lt;&lt;Abstract&gt;&gt;</text><text x="802.437" y="-228.5" fill="#000" font-family="Times,serif" font-size="14" text-anchor="middle">ServicePayer</text><polyline fill="none" stroke="#000" points="644.397 -220.3 960.477 -220.3"/><polyline fill="none" stroke="#000" points="644.397 -195.5 960.477 -195.5"/><text x="652.397" y="-178.9" fill="#000" font-family="Times,serif" font-size="14" text-anchor="start">Public:</text><text x="652.397" y="-162.1" fill="#000" font-family="Times,serif" font-size="14" text-anchor="start">constructor(receiver: address, serviceName: string)</text></g><g id="node8" class="node"><title>7</title><polygon fill="#f2f2f2" stroke="#000" points="337.207 -8.9 337.207 -100.1 947.667 -100.1 947.667 -8.9 337.207 -8.9"/><text x="642.437" y="-83.5" fill="#000" font-family="Times,serif" font-size="14" text-anchor="middle">BurnableBEP20</text><polyline fill="none" stroke="#000" points="337.207 -75.3 947.667 -75.3"/><polyline fill="none" stroke="#000" points="337.207 -50.5 947.667 -50.5"/><text x="345.207" y="-33.9" fill="#000" font-family="Times,serif" font-size="14" text-anchor="start">Public:</text><text x="345.207" y="-17.1" fill="#000" font-family="Times,serif" font-size="14" text-anchor="start">constructor(name: string, symbol: string, decimals: uint8, initialBalance: uint256, feeReceiver: address)</text></g><g id="edge5" class="edge"><title>7-&gt;4</title><path fill="none" stroke="#000" d="M594.8649,-100.1097C586.7544,-107.8857 578.1085,-116.1749 569.3513,-124.5709"/><polygon fill="none" stroke="#000" points="561.984 -117.088 547.595 -145.429 576.517 -132.247 561.984 -117.088"/></g><g id="edge6" class="edge"><title>7-&gt;6</title><path fill="none" stroke="#000" d="M690.0091,-100.1097C700.7306,-110.389 712.3875,-121.565 724.0004,-132.6989"/><polygon fill="none" stroke="#000" points="717.099 -140.628 746.021 -153.811 731.632 -125.47 717.099 -140.628"/></g></g></svg>