<svg xmlns="http://www.w3.org/2000/svg" xmlns:xlink="http://www.w3.org/1999/xlink" width="1692" height="1174pt" viewBox="0 0 1269.13 1173.6"><g id="graph0" class="graph" transform="scale(1 1) rotate(0) translate(4 1169.6)"><title>UmlClassDiagram</title><polygon fill="#fff" stroke="transparent" points="-4 4 -4 -1169.6 1265.126 -1169.6 1265.126 4 -4 4"/><g id="node1" class="node"><title>0</title><polygon fill="#f2f2f2" stroke="#000" points="163.488 -1040.3 163.488 -1165.1 321.386 -1165.1 321.386 -1040.3 163.488 -1040.3"/><text x="242.437" y="-1148.5" fill="#000" font-family="Times,serif" font-size="14" text-anchor="middle">&lt;&lt;Abstract&gt;&gt;</text><text x="242.437" y="-1131.7" fill="#000" font-family="Times,serif" font-size="14" text-anchor="middle">Context</text><polyline fill="none" stroke="#000" points="163.488 -1123.5 321.386 -1123.5"/><polyline fill="none" stroke="#000" points="163.488 -1098.7 321.386 -1098.7"/><text x="171.488" y="-1082.1" fill="#000" font-family="Times,serif" font-size="14" text-anchor="start">Internal:</text><text x="171.488" y="-1065.3" fill="#000" font-family="Times,serif" font-size="14" text-anchor="start">_msgSender(): address</text><text x="171.488" y="-1048.5" fill="#000" font-family="Times,serif" font-size="14" text-anchor="start">_msgData(): bytes</text></g><g id="node2" class="node"><title>1</title><polygon fill="#f2f2f2" stroke="#000" points="0 -744.1 0 -952.9 484.874 -952.9 484.874 -744.1 0 -744.1"/><text x="242.437" y="-936.3" fill="#000" font-family="Times,serif" font-size="14" text-anchor="middle">&lt;&lt;Abstract&gt;&gt;</text><text x="242.437" y="-919.5" fill="#000" font-family="Times,serif" font-size="14" text-anchor="middle">Ownable</text><polyline fill="none" stroke="#000" points="0 -911.3 484.874 -911.3"/><text x="8" y="-894.7" fill="#000" font-family="Times,serif" font-size="14" text-anchor="start">Private:</text><text x="8" y="-877.9" fill="#000" font-family="Times,serif" font-size="14" text-anchor="start">_owner: address</text><polyline fill="none" stroke="#000" points="0 -869.7 484.874 -869.7"/><text x="8" y="-853.1" fill="#000" font-family="Times,serif" font-size="14" text-anchor="start">Public:</text><text x="8" y="-836.3" fill="#000" font-family="Times,serif" font-size="14" text-anchor="start">&lt;&lt;event&gt;&gt; OwnershipTransferred(previousOwner: address, newOwner: address)</text><text x="8" y="-819.5" fill="#000" font-family="Times,serif" font-size="14" text-anchor="start">&lt;&lt;modifier&gt;&gt; onlyOwner()</text><text x="8" y="-802.7" fill="#000" font-family="Times,serif" font-size="14" text-anchor="start">constructor()</text><text x="8" y="-785.9" fill="#000" font-family="Times,serif" font-size="14" text-anchor="start">owner(): address</text><text x="8" y="-769.1" fill="#000" font-family="Times,serif" font-size="14" text-anchor="start">renounceOwnership()</text><text x="8" y="-752.3" fill="#000" font-family="Times,serif" font-size="14" text-anchor="start">transferOwnership(newOwner: address)</text></g><g id="edge1" class="edge"><title>1-&gt;0</title><path fill="none" stroke="#000" d="M242.437,-952.9933C242.437,-971.8265 242.437,-991.3438 242.437,-1009.819"/><polygon fill="none" stroke="#000" points="231.937 -1010.104 242.437 -1040.103 252.937 -1010.104 231.937 -1010.104"/></g><g id="node3" class="node"><title>2</title><polygon fill="#f2f2f2" stroke="#000" points="503.137 -693.7 503.137 -1003.3 941.737 -1003.3 941.737 -693.7 503.137 -693.7"/><text x="722.437" y="-986.7" fill="#000" font-family="Times,serif" font-size="14" text-anchor="middle">&lt;&lt;Interface&gt;&gt;</text><text x="722.437" y="-969.9" fill="#000" font-family="Times,serif" font-size="14" text-anchor="middle">IBEP20</text><polyline fill="none" stroke="#000" points="503.137 -961.7 941.737 -961.7"/><polyline fill="none" stroke="#000" points="503.137 -936.9 941.737 -936.9"/><text x="511.137" y="-920.3" fill="#000" font-family="Times,serif" font-size="14" text-anchor="start">External:</text><text x="511.137" y="-903.5" fill="#000" font-family="Times,serif" font-size="14" text-anchor="start">name(): string</text><text x="511.137" y="-886.7" fill="#000" font-family="Times,serif" font-size="14" text-anchor="start">symbol(): string</text><text x="511.137" y="-869.9" fill="#000" font-family="Times,serif" font-size="14" text-anchor="start">decimals(): uint8</text><text x="511.137" y="-853.1" fill="#000" font-family="Times,serif" font-size="14" text-anchor="start">totalSupply(): uint256</text><text x="511.137" y="-836.3" fill="#000" font-family="Times,serif" font-size="14" text-anchor="start">balanceOf(account: address): uint256</text><text x="511.137" y="-819.5" fill="#000" font-family="Times,serif" font-size="14" text-anchor="start">getOwner(): address</text><text x="511.137" y="-802.7" fill="#000" font-family="Times,serif" font-size="14" text-anchor="start">transfer(recipient: address, amount: uint256): bool</text><text x="511.137" y="-785.9" fill="#000" font-family="Times,serif" font-size="14" text-anchor="start">transferFrom(sender: address, recipient: address, amount: uint256): bool</text><text x="511.137" y="-769.1" fill="#000" font-family="Times,serif" font-size="14" text-anchor="start">approve(spender: address, amount: uint256): bool</text><text x="511.137" y="-752.3" fill="#000" font-family="Times,serif" font-size="14" text-anchor="start">allowance(_owner: address, spender: address): uint256</text><text x="511.137" y="-735.5" fill="#000" font-family="Times,serif" font-size="14" text-anchor="start">Public:</text><text x="511.137" y="-718.7" fill="#000" font-family="Times,serif" font-size="14" text-anchor="start">&lt;&lt;event&gt;&gt; Transfer(from: address, to: address, value: uint256)</text><text x="511.137" y="-701.9" fill="#000" font-family="Times,serif" font-size="14" text-anchor="start">&lt;&lt;event&gt;&gt; Approval(owner: address, spender: address, value: uint256)</text></g><g id="node4" class="node"><title>3</title><polygon fill="#f2f2f2" stroke="#000" points="264.887 -145.5 264.887 -656.7 699.987 -656.7 699.987 -145.5 264.887 -145.5"/><text x="482.437" y="-640.1" fill="#000" font-family="Times,serif" font-size="14" text-anchor="middle">BEP20</text><polyline fill="none" stroke="#000" points="264.887 -631.9 699.987 -631.9"/><text x="272.887" y="-615.3" fill="#000" font-family="Times,serif" font-size="14" text-anchor="start">Private:</text><text x="272.887" y="-598.5" fill="#000" font-family="Times,serif" font-size="14" text-anchor="start">_balances: mapping(address=&gt;uint256)</text><text x="272.887" y="-581.7" fill="#000" font-family="Times,serif" font-size="14" text-anchor="start">_allowances: mapping(address=&gt;mapping(address=&gt;uint256))</text><text x="272.887" y="-564.9" fill="#000" font-family="Times,serif" font-size="14" text-anchor="start">_totalSupply: uint256</text><text x="272.887" y="-548.1" fill="#000" font-family="Times,serif" font-size="14" text-anchor="start">_name: string</text><text x="272.887" y="-531.3" fill="#000" font-family="Times,serif" font-size="14" text-anchor="start">_symbol: string</text><text x="272.887" y="-514.5" fill="#000" font-family="Times,serif" font-size="14" text-anchor="start">_decimals: uint8</text><polyline fill="none" stroke="#000" points="264.887 -506.3 699.987 -506.3"/><text x="272.887" y="-489.7" fill="#000" font-family="Times,serif" font-size="14" text-anchor="start">Internal:</text><text x="272.887" y="-472.9" fill="#000" font-family="Times,serif" font-size="14" text-anchor="start">_transfer(sender: address, recipient: address, amount: uint256)</text><text x="272.887" y="-456.1" fill="#000" font-family="Times,serif" font-size="14" text-anchor="start">_mint(account: address, amount: uint256)</text><text x="272.887" y="-439.3" fill="#000" font-family="Times,serif" font-size="14" text-anchor="start">_burn(account: address, amount: uint256)</text><text x="272.887" y="-422.5" fill="#000" font-family="Times,serif" font-size="14" text-anchor="start">_approve(owner: address, spender: address, amount: uint256)</text><text x="272.887" y="-405.7" fill="#000" font-family="Times,serif" font-size="14" text-anchor="start">_setupDecimals(decimals_: uint8)</text><text x="272.887" y="-388.9" fill="#000" font-family="Times,serif" font-size="14" text-anchor="start">_beforeTokenTransfer(from: address, to: address, amount: uint256)</text><text x="272.887" y="-372.1" fill="#000" font-family="Times,serif" font-size="14" text-anchor="start">Public:</text><text x="272.887" y="-355.3" fill="#000" font-family="Times,serif" font-size="14" text-anchor="start">constructor(name_: string, symbol_: string)</text><text x="272.887" y="-338.5" fill="#000" font-family="Times,serif" font-size="14" text-anchor="start">name(): string</text><text x="272.887" y="-321.7" fill="#000" font-family="Times,serif" font-size="14" text-anchor="start">symbol(): string</text><text x="272.887" y="-304.9" fill="#000" font-family="Times,serif" font-size="14" text-anchor="start">decimals(): uint8</text><text x="272.887" y="-288.1" fill="#000" font-family="Times,serif" font-size="14" text-anchor="start">totalSupply(): uint256</text><text x="272.887" y="-271.3" fill="#000" font-family="Times,serif" font-size="14" text-anchor="start">balanceOf(account: address): uint256</text><text x="272.887" y="-254.5" fill="#000" font-family="Times,serif" font-size="14" text-anchor="start">getOwner(): address</text><text x="272.887" y="-237.7" fill="#000" font-family="Times,serif" font-size="14" text-anchor="start">transfer(recipient: address, amount: uint256): bool</text><text x="272.887" y="-220.9" fill="#000" font-family="Times,serif" font-size="14" text-anchor="start">transferFrom(sender: address, recipient: address, amount: uint256): bool</text><text x="272.887" y="-204.1" fill="#000" font-family="Times,serif" font-size="14" text-anchor="start">approve(spender: address, amount: uint256): bool</text><text x="272.887" y="-187.3" fill="#000" font-family="Times,serif" font-size="14" text-anchor="start">allowance(owner: address, spender: address): uint256</text><text x="272.887" y="-170.5" fill="#000" font-family="Times,serif" font-size="14" text-anchor="start">increaseAllowance(spender: address, addedValue: uint256): bool</text><text x="272.887" y="-153.7" fill="#000" font-family="Times,serif" font-size="14" text-anchor="start">decreaseAllowance(spender: address, subtractedValue: uint256): bool</text></g><g id="edge2" class="edge"><title>3-&gt;1</title><path fill="none" stroke="#000" d="M345.263,-656.8151C334.0939,-677.6363 323.1274,-698.0796 312.7615,-717.4034"/><polygon fill="none" stroke="#000" points="303.477 -712.5 298.548 -743.9 321.982 -722.427 303.477 -712.5"/></g><g id="edge3" class="edge"><title>3-&gt;2</title><path fill="none" stroke="#000" stroke-dasharray="5 2" d="M619.611,-656.8151C621.4341,-660.2138 623.2519,-663.6025 625.0626,-666.9778"/><polygon fill="none" stroke="#000" points="615.878 -672.069 639.313 -693.542 634.384 -662.142 615.878 -672.069"/></g><g id="node5" class="node"><title>4</title><polygon fill="#f2f2f2" stroke="#000" points="1085.748 -.5 1085.748 -108.5 1261.126 -108.5 1261.126 -.5 1085.748 -.5"/><text x="1173.437" y="-91.9" fill="#000" font-family="Times,serif" font-size="14" text-anchor="middle">&lt;&lt;Interface&gt;&gt;</text><text x="1173.437" y="-75.1" fill="#000" font-family="Times,serif" font-size="14" text-anchor="middle">IPayable</text><polyline fill="none" stroke="#000" points="1085.748 -66.9 1261.126 -66.9"/><polyline fill="none" stroke="#000" points="1085.748 -42.1 1261.126 -42.1"/><text x="1093.748" y="-25.5" fill="#000" font-family="Times,serif" font-size="14" text-anchor="start">External:</text><text x="1093.748" y="-8.7" fill="#000" font-family="Times,serif" font-size="14" text-anchor="start">pay(serviceName: string)</text></g><g id="node6" class="node"><title>5</title><polygon fill="#f2f2f2" stroke="#000" points="718.397 -347.1 718.397 -455.1 1034.477 -455.1 1034.477 -347.1 718.397 -347.1"/><text x="876.437" y="-438.5" fill="#000" font-family="Times,serif" font-size="14" text-anchor="middle">&lt;&lt;Abstract&gt;&gt;</text><text x="876.437" y="-421.7" fill="#000" font-family="Times,serif" font-size="14" text-anchor="middle">ServicePayer</text><polyline fill="none" stroke="#000" points="718.397 -413.5 1034.477 -413.5"/><polyline fill="none" stroke="#000" points="718.397 -388.7 1034.477 -388.7"/><text x="726.397" y="-372.1" fill="#000" font-family="Times,serif" font-size="14" text-anchor="start">Public:</text><text x="726.397" y="-355.3" fill="#000" font-family="Times,serif" font-size="14" text-anchor="start">constructor(receiver: address, serviceName: string)</text></g><g id="node7" class="node"><title>6</title><polygon fill="#f2f2f2" stroke="#000" points="1052.545 -321.9 1052.545 -480.3 1242.329 -480.3 1242.329 -321.9 1052.545 -321.9"/><text x="1147.437" y="-463.7" fill="#000" font-family="Times,serif" font-size="14" text-anchor="middle">GeneratorCopyright</text><polyline fill="none" stroke="#000" points="1052.545 -455.5 1242.329 -455.5"/><text x="1060.545" y="-438.9" fill="#000" font-family="Times,serif" font-size="14" text-anchor="start">Private:</text><text x="1060.545" y="-422.1" fill="#000" font-family="Times,serif" font-size="14" text-anchor="start">_GENERATOR: string</text><text x="1060.545" y="-405.3" fill="#000" font-family="Times,serif" font-size="14" text-anchor="start">_version: string</text><polyline fill="none" stroke="#000" points="1052.545 -397.1 1242.329 -397.1"/><text x="1060.545" y="-380.5" fill="#000" font-family="Times,serif" font-size="14" text-anchor="start">Public:</text><text x="1060.545" y="-363.7" fill="#000" font-family="Times,serif" font-size="14" text-anchor="start">constructor(version_: string)</text><text x="1060.545" y="-346.9" fill="#000" font-family="Times,serif" font-size="14" text-anchor="start">generator(): string</text><text x="1060.545" y="-330.1" fill="#000" font-family="Times,serif" font-size="14" text-anchor="start">version(): string</text></g><g id="node8" class="node"><title>7</title><polygon fill="#f2f2f2" stroke="#000" points="685.136 -8.9 685.136 -100.1 1067.738 -100.1 1067.738 -8.9 685.136 -8.9"/><text x="876.437" y="-83.5" fill="#000" font-family="Times,serif" font-size="14" text-anchor="middle">HelloBEP20</text><polyline fill="none" stroke="#000" points="685.136 -75.3 1067.738 -75.3"/><polyline fill="none" stroke="#000" points="685.136 -50.5 1067.738 -50.5"/><text x="693.136" y="-33.9" fill="#000" font-family="Times,serif" font-size="14" text-anchor="start">Public:</text><text x="693.136" y="-17.1" fill="#000" font-family="Times,serif" font-size="14" text-anchor="start">constructor(name: string, symbol: string, feeReceiver: address)</text></g><g id="edge4" class="edge"><title>7-&gt;3</title><path fill="none" stroke="#000" d="M778.3395,-100.2672C761.2964,-109.6354 743.8272,-120.1503 724.0072,-134.4052"/><polygon fill="none" stroke="#000" points="717.574 -126.106 700.04 -152.617 730.279 -142.827 717.574 -126.106"/></g><g id="edge5" class="edge"><title>7-&gt;5</title><path fill="none" stroke="#000" d="M876.437,-100.1683C876.437,-155.1544 876.437,-248.6075 876.437,-316.8119"/><polygon fill="none" stroke="#000" points="865.937 -317.064 876.437 -347.064 886.937 -317.064 865.937 -317.064"/></g><g id="edge6" class="edge"><title>7-&gt;6</title><path fill="none" stroke="#000" d="M986.6997,-100.1294C1007.4672,-112.4071 1027.604,-127.3066 1043.437,-145 1080.7126,-186.6556 1105.5983,-243.4262 1121.6518,-292.9323"/><polygon fill="none" stroke="#000" points="1111.647 -296.124 1130.324 -321.843 1131.762 -290.091 1111.647 -296.124"/></g></g></svg>