<svg xmlns="http://www.w3.org/2000/svg" xmlns:xlink="http://www.w3.org/1999/xlink" width="1556" height="1960" viewBox="0 0 1167.13 1469.8"><g id="graph0" class="graph" transform="scale(1 1) rotate(0) translate(4 1465.8)"><title>UmlClassDiagram</title><polygon fill="#fff" stroke="transparent" points="-4 4 -4 -1465.8 1163.126 -1465.8 1163.126 4 -4 4"/><g id="node1" class="node"><title>0</title><polygon fill="#f2f2f2" stroke="#000" points="163.488 -1336.5 163.488 -1461.3 321.386 -1461.3 321.386 -1336.5 163.488 -1336.5"/><text x="242.437" y="-1444.7" fill="#000" font-family="Times,serif" font-size="14" text-anchor="middle">&lt;&lt;Abstract&gt;&gt;</text><text x="242.437" y="-1427.9" fill="#000" font-family="Times,serif" font-size="14" text-anchor="middle">Context</text><polyline fill="none" stroke="#000" points="163.488 -1419.7 321.386 -1419.7"/><polyline fill="none" stroke="#000" points="163.488 -1394.9 321.386 -1394.9"/><text x="171.488" y="-1378.3" fill="#000" font-family="Times,serif" font-size="14" text-anchor="start">Internal:</text><text x="171.488" y="-1361.5" fill="#000" font-family="Times,serif" font-size="14" text-anchor="start">_msgSender(): address</text><text x="171.488" y="-1344.7" fill="#000" font-family="Times,serif" font-size="14" text-anchor="start">_msgData(): bytes</text></g><g id="node2" class="node"><title>1</title><polygon fill="#f2f2f2" stroke="#000" points="0 -1040.3 0 -1249.1 484.874 -1249.1 484.874 -1040.3 0 -1040.3"/><text x="242.437" y="-1232.5" fill="#000" font-family="Times,serif" font-size="14" text-anchor="middle">&lt;&lt;Abstract&gt;&gt;</text><text x="242.437" y="-1215.7" fill="#000" font-family="Times,serif" font-size="14" text-anchor="middle">Ownable</text><polyline fill="none" stroke="#000" points="0 -1207.5 484.874 -1207.5"/><text x="8" y="-1190.9" fill="#000" font-family="Times,serif" font-size="14" text-anchor="start">Private:</text><text x="8" y="-1174.1" fill="#000" font-family="Times,serif" font-size="14" text-anchor="start">_owner: address</text><polyline fill="none" stroke="#000" points="0 -1165.9 484.874 -1165.9"/><text x="8" y="-1149.3" fill="#000" font-family="Times,serif" font-size="14" text-anchor="start">Public:</text><text x="8" y="-1132.5" fill="#000" font-family="Times,serif" font-size="14" text-anchor="start">&lt;&lt;event&gt;&gt; OwnershipTransferred(previousOwner: address, newOwner: address)</text><text x="8" y="-1115.7" fill="#000" font-family="Times,serif" font-size="14" text-anchor="start">&lt;&lt;modifier&gt;&gt; onlyOwner()</text><text x="8" y="-1098.9" fill="#000" font-family="Times,serif" font-size="14" text-anchor="start">constructor()</text><text x="8" y="-1082.1" fill="#000" font-family="Times,serif" font-size="14" text-anchor="start">owner(): address</text><text x="8" y="-1065.3" fill="#000" font-family="Times,serif" font-size="14" text-anchor="start">renounceOwnership()</text><text x="8" y="-1048.5" fill="#000" font-family="Times,serif" font-size="14" text-anchor="start">transferOwnership(newOwner: address)</text></g><g id="edge1" class="edge"><title>1-&gt;0</title><path fill="none" stroke="#000" d="M242.437,-1249.1933C242.437,-1268.0265 242.437,-1287.5438 242.437,-1306.019"/><polygon fill="none" stroke="#000" points="231.937 -1306.303 242.437 -1336.303 252.937 -1306.304 231.937 -1306.303"/></g><g id="node3" class="node"><title>2</title><polygon fill="#f2f2f2" stroke="#000" points="503.137 -989.9 503.137 -1299.5 941.737 -1299.5 941.737 -989.9 503.137 -989.9"/><text x="722.437" y="-1282.9" fill="#000" font-family="Times,serif" font-size="14" text-anchor="middle">&lt;&lt;Interface&gt;&gt;</text><text x="722.437" y="-1266.1" fill="#000" font-family="Times,serif" font-size="14" text-anchor="middle">IBEP20</text><polyline fill="none" stroke="#000" points="503.137 -1257.9 941.737 -1257.9"/><polyline fill="none" stroke="#000" points="503.137 -1233.1 941.737 -1233.1"/><text x="511.137" y="-1216.5" fill="#000" font-family="Times,serif" font-size="14" text-anchor="start">External:</text><text x="511.137" y="-1199.7" fill="#000" font-family="Times,serif" font-size="14" text-anchor="start">name(): string</text><text x="511.137" y="-1182.9" fill="#000" font-family="Times,serif" font-size="14" text-anchor="start">symbol(): string</text><text x="511.137" y="-1166.1" fill="#000" font-family="Times,serif" font-size="14" text-anchor="start">decimals(): uint8</text><text x="511.137" y="-1149.3" fill="#000" font-family="Times,serif" font-size="14" text-anchor="start">totalSupply(): uint256</text><text x="511.137" y="-1132.5" fill="#000" font-family="Times,serif" font-size="14" text-anchor="start">balanceOf(account: address): uint256</text><text x="511.137" y="-1115.7" fill="#000" font-family="Times,serif" font-size="14" text-anchor="start">getOwner(): address</text><text x="511.137" y="-1098.9" fill="#000" font-family="Times,serif" font-size="14" text-anchor="start">transfer(recipient: address, amount: uint256): bool</text><text x="511.137" y="-1082.1" fill="#000" font-family="Times,serif" font-size="14" text-anchor="start">transferFrom(sender: address, recipient: address, amount: uint256): bool</text><text x="511.137" y="-1065.3" fill="#000" font-family="Times,serif" font-size="14" text-anchor="start">approve(spender: address, amount: uint256): bool</text><text x="511.137" y="-1048.5" fill="#000" font-family="Times,serif" font-size="14" text-anchor="start">allowance(_owner: address, spender: address): uint256</text><text x="511.137" y="-1031.7" fill="#000" font-family="Times,serif" font-size="14" text-anchor="start">Public:</text><text x="511.137" y="-1014.9" fill="#000" font-family="Times,serif" font-size="14" text-anchor="start">&lt;&lt;event&gt;&gt; Transfer(from: address, to: address, value: uint256)</text><text x="511.137" y="-998.1" fill="#000" font-family="Times,serif" font-size="14" text-anchor="start">&lt;&lt;event&gt;&gt; Approval(owner: address, spender: address, value: uint256)</text></g><g id="node4" class="node"><title>3</title><polygon fill="#f2f2f2" stroke="#000" points="264.887 -441.7 264.887 -952.9 699.987 -952.9 699.987 -441.7 264.887 -441.7"/><text x="482.437" y="-936.3" fill="#000" font-family="Times,serif" font-size="14" text-anchor="middle">BEP20</text><polyline fill="none" stroke="#000" points="264.887 -928.1 699.987 -928.1"/><text x="272.887" y="-911.5" fill="#000" font-family="Times,serif" font-size="14" text-anchor="start">Private:</text><text x="272.887" y="-894.7" fill="#000" font-family="Times,serif" font-size="14" text-anchor="start">_balances: mapping(address=&gt;uint256)</text><text x="272.887" y="-877.9" fill="#000" font-family="Times,serif" font-size="14" text-anchor="start">_allowances: mapping(address=&gt;mapping(address=&gt;uint256))</text><text x="272.887" y="-861.1" fill="#000" font-family="Times,serif" font-size="14" text-anchor="start">_totalSupply: uint256</text><text x="272.887" y="-844.3" fill="#000" font-family="Times,serif" font-size="14" text-anchor="start">_name: string</text><text x="272.887" y="-827.5" fill="#000" font-family="Times,serif" font-size="14" text-anchor="start">_symbol: string</text><text x="272.887" y="-810.7" fill="#000" font-family="Times,serif" font-size="14" text-anchor="start">_decimals: uint8</text><polyline fill="none" stroke="#000" points="264.887 -802.5 699.987 -802.5"/><text x="272.887" y="-785.9" fill="#000" font-family="Times,serif" font-size="14" text-anchor="start">Internal:</text><text x="272.887" y="-769.1" fill="#000" font-family="Times,serif" font-size="14" text-anchor="start">_transfer(sender: address, recipient: address, amount: uint256)</text><text x="272.887" y="-752.3" fill="#000" font-family="Times,serif" font-size="14" text-anchor="start">_mint(account: address, amount: uint256)</text><text x="272.887" y="-735.5" fill="#000" font-family="Times,serif" font-size="14" text-anchor="start">_burn(account: address, amount: uint256)</text><text x="272.887" y="-718.7" fill="#000" font-family="Times,serif" font-size="14" text-anchor="start">_approve(owner: address, spender: address, amount: uint256)</text><text x="272.887" y="-701.9" fill="#000" font-family="Times,serif" font-size="14" text-anchor="start">_setupDecimals(decimals_: uint8)</text><text x="272.887" y="-685.1" fill="#000" font-family="Times,serif" font-size="14" text-anchor="start">_beforeTokenTransfer(from: address, to: address, amount: uint256)</text><text x="272.887" y="-668.3" fill="#000" font-family="Times,serif" font-size="14" text-anchor="start">Public:</text><text x="272.887" y="-651.5" fill="#000" font-family="Times,serif" font-size="14" text-anchor="start">constructor(name_: string, symbol_: string)</text><text x="272.887" y="-634.7" fill="#000" font-family="Times,serif" font-size="14" text-anchor="start">name(): string</text><text x="272.887" y="-617.9" fill="#000" font-family="Times,serif" font-size="14" text-anchor="start">symbol(): string</text><text x="272.887" y="-601.1" fill="#000" font-family="Times,serif" font-size="14" text-anchor="start">decimals(): uint8</text><text x="272.887" y="-584.3" fill="#000" font-family="Times,serif" font-size="14" text-anchor="start">totalSupply(): uint256</text><text x="272.887" y="-567.5" fill="#000" font-family="Times,serif" font-size="14" text-anchor="start">balanceOf(account: address): uint256</text><text x="272.887" y="-550.7" fill="#000" font-family="Times,serif" font-size="14" text-anchor="start">getOwner(): address</text><text x="272.887" y="-533.9" fill="#000" font-family="Times,serif" font-size="14" text-anchor="start">transfer(recipient: address, amount: uint256): bool</text><text x="272.887" y="-517.1" fill="#000" font-family="Times,serif" font-size="14" text-anchor="start">transferFrom(sender: address, recipient: address, amount: uint256): bool</text><text x="272.887" y="-500.3" fill="#000" font-family="Times,serif" font-size="14" text-anchor="start">approve(spender: address, amount: uint256): bool</text><text x="272.887" y="-483.5" fill="#000" font-family="Times,serif" font-size="14" text-anchor="start">allowance(owner: address, spender: address): uint256</text><text x="272.887" y="-466.7" fill="#000" font-family="Times,serif" font-size="14" text-anchor="start">increaseAllowance(spender: address, addedValue: uint256): bool</text><text x="272.887" y="-449.9" fill="#000" font-family="Times,serif" font-size="14" text-anchor="start">decreaseAllowance(spender: address, subtractedValue: uint256): bool</text></g><g id="edge2" class="edge"><title>3-&gt;1</title><path fill="none" stroke="#000" d="M345.263,-953.0151C334.0939,-973.8363 323.1274,-994.2796 312.7615,-1013.6034"/><polygon fill="none" stroke="#000" points="303.477 -1008.7 298.548 -1040.1 321.982 -1018.627 303.477 -1008.7"/></g><g id="edge3" class="edge"><title>3-&gt;2</title><path fill="none" stroke="#000" stroke-dasharray="5 2" d="M619.611,-953.0151C621.4341,-956.4138 623.2519,-959.8025 625.0626,-963.1778"/><polygon fill="none" stroke="#000" points="615.878 -968.269 639.313 -989.742 634.384 -958.342 615.878 -968.269"/></g><g id="node5" class="node"><title>4</title><polygon fill="#f2f2f2" stroke="#000" points="211.405 -204.3 211.405 -379.5 475.469 -379.5 475.469 -204.3 211.405 -204.3"/><text x="343.437" y="-362.9" fill="#000" font-family="Times,serif" font-size="14" text-anchor="middle">&lt;&lt;Abstract&gt;&gt;</text><text x="343.437" y="-346.1" fill="#000" font-family="Times,serif" font-size="14" text-anchor="middle">BEP20Capped</text><polyline fill="none" stroke="#000" points="211.405 -337.9 475.469 -337.9"/><text x="219.405" y="-321.3" fill="#000" font-family="Times,serif" font-size="14" text-anchor="start">Private:</text><text x="219.405" y="-304.5" fill="#000" font-family="Times,serif" font-size="14" text-anchor="start">_cap: uint256</text><polyline fill="none" stroke="#000" points="211.405 -296.3 475.469 -296.3"/><text x="219.405" y="-279.7" fill="#000" font-family="Times,serif" font-size="14" text-anchor="start">Internal:</text><text x="219.405" y="-262.9" fill="#000" font-family="Times,serif" font-size="14" text-anchor="start">_mint(account: address, amount: uint256)</text><text x="219.405" y="-246.1" fill="#000" font-family="Times,serif" font-size="14" text-anchor="start">Public:</text><text x="219.405" y="-229.3" fill="#000" font-family="Times,serif" font-size="14" text-anchor="start">constructor(cap_: uint256)</text><text x="219.405" y="-212.5" fill="#000" font-family="Times,serif" font-size="14" text-anchor="start">cap(): uint256</text></g><g id="edge4" class="edge"><title>4-&gt;3</title><path fill="none" stroke="#000" d="M373.5979,-379.8658C377.2075,-390.3933 381.0282,-401.5365 384.9946,-413.1046"/><polygon fill="none" stroke="#000" points="375.133 -416.716 394.795 -441.688 394.997 -409.905 375.133 -416.716"/></g><g id="node6" class="node"><title>5</title><polygon fill="#f2f2f2" stroke="#000" points="493.905 -179.1 493.905 -404.7 750.969 -404.7 750.969 -179.1 493.905 -179.1"/><text x="622.437" y="-388.1" fill="#000" font-family="Times,serif" font-size="14" text-anchor="middle">&lt;&lt;Abstract&gt;&gt;</text><text x="622.437" y="-371.3" fill="#000" font-family="Times,serif" font-size="14" text-anchor="middle">BEP20Mintable</text><polyline fill="none" stroke="#000" points="493.905 -363.1 750.969 -363.1"/><text x="501.905" y="-346.5" fill="#000" font-family="Times,serif" font-size="14" text-anchor="start">Private:</text><text x="501.905" y="-329.7" fill="#000" font-family="Times,serif" font-size="14" text-anchor="start">_mintingFinished: bool</text><polyline fill="none" stroke="#000" points="493.905 -321.5 750.969 -321.5"/><text x="501.905" y="-304.9" fill="#000" font-family="Times,serif" font-size="14" text-anchor="start">Internal:</text><text x="501.905" y="-288.1" fill="#000" font-family="Times,serif" font-size="14" text-anchor="start">_finishMinting()</text><text x="501.905" y="-271.3" fill="#000" font-family="Times,serif" font-size="14" text-anchor="start">Public:</text><text x="501.905" y="-254.5" fill="#000" font-family="Times,serif" font-size="14" text-anchor="start">&lt;&lt;event&gt;&gt; MintFinished()</text><text x="501.905" y="-237.7" fill="#000" font-family="Times,serif" font-size="14" text-anchor="start">&lt;&lt;modifier&gt;&gt; canMint()</text><text x="501.905" y="-220.9" fill="#000" font-family="Times,serif" font-size="14" text-anchor="start">mintingFinished(): bool</text><text x="501.905" y="-204.1" fill="#000" font-family="Times,serif" font-size="14" text-anchor="start">mint(account: address, amount: uint256)</text><text x="501.905" y="-187.3" fill="#000" font-family="Times,serif" font-size="14" text-anchor="start">finishMinting()</text></g><g id="edge5" class="edge"><title>5-&gt;3</title><path fill="none" stroke="#000" d="M583.4392,-404.8265C582.4816,-407.5995 581.5143,-410.4006 580.5382,-413.227"/><polygon fill="none" stroke="#000" points="570.594 -409.855 570.726 -441.639 590.444 -416.71 570.594 -409.855"/></g><g id="node7" class="node"><title>6</title><polygon fill="#f2f2f2" stroke="#000" points="983.748 -17.3 983.748 -125.3 1159.126 -125.3 1159.126 -17.3 983.748 -17.3"/><text x="1071.437" y="-108.7" fill="#000" font-family="Times,serif" font-size="14" text-anchor="middle">&lt;&lt;Interface&gt;&gt;</text><text x="1071.437" y="-91.9" fill="#000" font-family="Times,serif" font-size="14" text-anchor="middle">IPayable</text><polyline fill="none" stroke="#000" points="983.748 -83.7 1159.126 -83.7"/><polyline fill="none" stroke="#000" points="983.748 -58.9 1159.126 -58.9"/><text x="991.748" y="-42.3" fill="#000" font-family="Times,serif" font-size="14" text-anchor="start">External:</text><text x="991.748" y="-25.5" fill="#000" font-family="Times,serif" font-size="14" text-anchor="start">pay(serviceName: string)</text></g><g id="node8" class="node"><title>7</title><polygon fill="#f2f2f2" stroke="#000" points="769.397 -237.9 769.397 -345.9 1085.477 -345.9 1085.477 -237.9 769.397 -237.9"/><text x="927.437" y="-329.3" fill="#000" font-family="Times,serif" font-size="14" text-anchor="middle">&lt;&lt;Abstract&gt;&gt;</text><text x="927.437" y="-312.5" fill="#000" font-family="Times,serif" font-size="14" text-anchor="middle">ServicePayer</text><polyline fill="none" stroke="#000" points="769.397 -304.3 1085.477 -304.3"/><polyline fill="none" stroke="#000" points="769.397 -279.5 1085.477 -279.5"/><text x="777.397" y="-262.9" fill="#000" font-family="Times,serif" font-size="14" text-anchor="start">Public:</text><text x="777.397" y="-246.1" fill="#000" font-family="Times,serif" font-size="14" text-anchor="start">constructor(receiver: address, serviceName: string)</text></g><g id="node9" class="node"><title>8</title><polygon fill="#f2f2f2" stroke="#000" points="278.907 -.5 278.907 -142.1 965.967 -142.1 965.967 -.5 278.907 -.5"/><text x="622.437" y="-125.5" fill="#000" font-family="Times,serif" font-size="14" text-anchor="middle">MintableBEP20</text><polyline fill="none" stroke="#000" points="278.907 -117.3 965.967 -117.3"/><polyline fill="none" stroke="#000" points="278.907 -92.5 965.967 -92.5"/><text x="286.907" y="-75.9" fill="#000" font-family="Times,serif" font-size="14" text-anchor="start">Internal:</text><text x="286.907" y="-59.1" fill="#000" font-family="Times,serif" font-size="14" text-anchor="start">_mint(account: address, amount: uint256)</text><text x="286.907" y="-42.3" fill="#000" font-family="Times,serif" font-size="14" text-anchor="start">_finishMinting()</text><text x="286.907" y="-25.5" fill="#000" font-family="Times,serif" font-size="14" text-anchor="start">Public:</text><text x="286.907" y="-8.7" fill="#000" font-family="Times,serif" font-size="14" text-anchor="start">constructor(name: string, symbol: string, decimals: uint8, cap: uint256, initialBalance: uint256, feeReceiver: address)</text></g><g id="edge6" class="edge"><title>8-&gt;4</title><path fill="none" stroke="#000" d="M530.6014,-142.3759C515.1573,-154.4232 499.3173,-166.8377 484.437,-178.6 481.6558,-180.7984 478.8458,-183.0232 476.0148,-185.2679"/><polygon fill="none" stroke="#000" points="469.159 -177.305 452.222 -204.2 482.235 -193.737 469.159 -177.305"/></g><g id="edge7" class="edge"><title>8-&gt;5</title><path fill="none" stroke="#000" d="M622.437,-142.3135C622.437,-144.4183 622.437,-146.5451 622.437,-148.6901"/><polygon fill="none" stroke="#000" points="611.937 -148.861 622.437 -178.861 632.937 -148.861 611.937 -148.861"/></g><g id="edge8" class="edge"><title>8-&gt;7</title><path fill="none" stroke="#000" d="M720.6198,-142.3135C755.0083,-167.186 793.6355,-195.1242 828.1163,-220.0635"/><polygon fill="none" stroke="#000" points="822.199 -228.742 852.661 -237.816 834.506 -211.726 822.199 -228.742"/></g></g></svg>