<svg xmlns="http://www.w3.org/2000/svg" xmlns:xlink="http://www.w3.org/1999/xlink" width="493pt" height="625pt" viewBox="0 0 492.87 625.4"><g id="graph0" class="graph" transform="scale(1 1) rotate(0) translate(4 621.4)"><title>UmlClassDiagram</title><polygon fill="#fff" stroke="transparent" points="-4 4 -4 -621.4 488.874 -621.4 488.874 4 -4 4"/><g id="node1" class="node"><title>0</title><polygon fill="#f2f2f2" stroke="#000" points="163.488 -492.1 163.488 -616.9 321.386 -616.9 321.386 -492.1 163.488 -492.1"/><text x="242.437" y="-600.3" fill="#000" font-family="Times,serif" font-size="14" text-anchor="middle">&lt;&lt;Abstract&gt;&gt;</text><text x="242.437" y="-583.5" fill="#000" font-family="Times,serif" font-size="14" text-anchor="middle">Context</text><polyline fill="none" stroke="#000" points="163.488 -575.3 321.386 -575.3"/><polyline fill="none" stroke="#000" points="163.488 -550.5 321.386 -550.5"/><text x="171.488" y="-533.9" fill="#000" font-family="Times,serif" font-size="14" text-anchor="start">Internal:</text><text x="171.488" y="-517.1" fill="#000" font-family="Times,serif" font-size="14" text-anchor="start">_msgSender(): address</text><text x="171.488" y="-500.3" fill="#000" font-family="Times,serif" font-size="14" text-anchor="start">_msgData(): bytes</text></g><g id="node2" class="node"><title>1</title><polygon fill="#f2f2f2" stroke="#000" points="0 -246.3 0 -455.1 484.874 -455.1 484.874 -246.3 0 -246.3"/><text x="242.437" y="-438.5" fill="#000" font-family="Times,serif" font-size="14" text-anchor="middle">&lt;&lt;Abstract&gt;&gt;</text><text x="242.437" y="-421.7" fill="#000" font-family="Times,serif" font-size="14" text-anchor="middle">Ownable</text><polyline fill="none" stroke="#000" points="0 -413.5 484.874 -413.5"/><text x="8" y="-396.9" fill="#000" font-family="Times,serif" font-size="14" text-anchor="start">Private:</text><text x="8" y="-380.1" fill="#000" font-family="Times,serif" font-size="14" text-anchor="start">_owner: address</text><polyline fill="none" stroke="#000" points="0 -371.9 484.874 -371.9"/><text x="8" y="-355.3" fill="#000" font-family="Times,serif" font-size="14" text-anchor="start">Public:</text><text x="8" y="-338.5" fill="#000" font-family="Times,serif" font-size="14" text-anchor="start">&lt;&lt;event&gt;&gt; OwnershipTransferred(previousOwner: address, newOwner: address)</text><text x="8" y="-321.7" fill="#000" font-family="Times,serif" font-size="14" text-anchor="start">&lt;&lt;modifier&gt;&gt; onlyOwner()</text><text x="8" y="-304.9" fill="#000" font-family="Times,serif" font-size="14" text-anchor="start">constructor()</text><text x="8" y="-288.1" fill="#000" font-family="Times,serif" font-size="14" text-anchor="start">owner(): address</text><text x="8" y="-271.3" fill="#000" font-family="Times,serif" font-size="14" text-anchor="start">renounceOwnership()</text><text x="8" y="-254.5" fill="#000" font-family="Times,serif" font-size="14" text-anchor="start">transferOwnership(newOwner: address)</text></g><g id="edge1" class="edge"><title>1-&gt;0</title><path fill="none" stroke="#000" d="M242.437,-455.2865C242.437,-457.4366 242.437,-459.5852 242.437,-461.7282"/><polygon fill="none" stroke="#000" points="231.937 -461.899 242.437 -491.899 252.937 -461.899 231.937 -461.899"/></g><g id="node3" class="node"><title>2</title><polygon fill="#f2f2f2" stroke="#000" points="41.2 -.5 41.2 -209.3 443.674 -209.3 443.674 -.5 41.2 -.5"/><text x="242.437" y="-192.7" fill="#000" font-family="Times,serif" font-size="14" text-anchor="middle">ServiceReceiver</text><polyline fill="none" stroke="#000" points="41.2 -184.5 443.674 -184.5"/><text x="49.2" y="-167.9" fill="#000" font-family="Times,serif" font-size="14" text-anchor="start">Private:</text><text x="49.2" y="-151.1" fill="#000" font-family="Times,serif" font-size="14" text-anchor="start">_prices: mapping(bytes32=&gt;uint256)</text><polyline fill="none" stroke="#000" points="41.2 -142.9 443.674 -142.9"/><text x="49.2" y="-126.3" fill="#000" font-family="Times,serif" font-size="14" text-anchor="start">Private:</text><text x="49.2" y="-109.5" fill="#000" font-family="Times,serif" font-size="14" text-anchor="start">_toBytes32(serviceName: string): bytes32</text><text x="49.2" y="-92.7" fill="#000" font-family="Times,serif" font-size="14" text-anchor="start">Public:</text><text x="49.2" y="-75.9" fill="#000" font-family="Times,serif" font-size="14" text-anchor="start">&lt;&lt;payable&gt;&gt; pay(serviceName: string)</text><text x="49.2" y="-59.1" fill="#000" font-family="Times,serif" font-size="14" text-anchor="start">&lt;&lt;event&gt;&gt; Created(serviceName: string, serviceAddress: address)</text><text x="49.2" y="-42.3" fill="#000" font-family="Times,serif" font-size="14" text-anchor="start">getPrice(serviceName: string): uint256</text><text x="49.2" y="-25.5" fill="#000" font-family="Times,serif" font-size="14" text-anchor="start">setPrice(serviceName: string, amount: uint256)</text><text x="49.2" y="-8.7" fill="#000" font-family="Times,serif" font-size="14" text-anchor="start">withdraw(amount: uint256)</text></g><g id="edge2" class="edge"><title>2-&gt;1</title><path fill="none" stroke="#000" d="M242.437,-209.4977C242.437,-211.6813 242.437,-213.8727 242.437,-216.0692"/><polygon fill="none" stroke="#000" points="231.937 -216.196 242.437 -246.196 252.937 -216.196 231.937 -216.196"/></g></g></svg>