<svg xmlns="http://www.w3.org/2000/svg" xmlns:xlink="http://www.w3.org/1999/xlink" width="1042pt" height="1174pt" viewBox="0 0 1042.48 1173.6"><g id="graph0" class="graph" transform="scale(1 1) rotate(0) translate(4 1169.6)"><title>UmlClassDiagram</title><polygon fill="#fff" stroke="transparent" points="-4 4 -4 -1169.6 1038.477 -1169.6 1038.477 4 -4 4"/><g id="node1" class="node"><title>0</title><polygon fill="#f2f2f2" stroke="#000" points="163.488 -1040.3 163.488 -1165.1 321.386 -1165.1 321.386 -1040.3 163.488 -1040.3"/><text x="242.437" y="-1148.5" fill="#000" font-family="Times,serif" font-size="14" text-anchor="middle">&lt;&lt;Abstract&gt;&gt;</text><text x="242.437" y="-1131.7" fill="#000" font-family="Times,serif" font-size="14" text-anchor="middle">Context</text><polyline fill="none" stroke="#000" points="163.488 -1123.5 321.386 -1123.5"/><polyline fill="none" stroke="#000" points="163.488 -1098.7 321.386 -1098.7"/><text x="171.488" y="-1082.1" fill="#000" font-family="Times,serif" font-size="14" text-anchor="start">Internal:</text><text x="171.488" y="-1065.3" fill="#000" font-family="Times,serif" font-size="14" text-anchor="start">_msgSender(): address</text><text x="171.488" y="-1048.5" fill="#000" font-family="Times,serif" font-size="14" text-anchor="start">_msgData(): bytes</text></g><g id="node2" class="node"><title>1</title><polygon fill="#f2f2f2" stroke="#000" points="0 -744.1 0 -952.9 484.874 -952.9 484.874 -744.1 0 -744.1"/><text x="242.437" y="-936.3" fill="#000" font-family="Times,serif" font-size="14" text-anchor="middle">&lt;&lt;Abstract&gt;&gt;</text><text x="242.437" y="-919.5" fill="#000" font-family="Times,serif" font-size="14" text-anchor="middle">Ownable</text><polyline fill="none" stroke="#000" points="0 -911.3 484.874 -911.3"/><text x="8" y="-894.7" fill="#000" font-family="Times,serif" font-size="14" text-anchor="start">Private:</text><text x="8" y="-877.9" fill="#000" font-family="Times,serif" font-size="14" text-anchor="start">_owner: address</text><polyline fill="none" stroke="#000" points="0 -869.7 484.874 -869.7"/><text x="8" y="-853.1" fill="#000" font-family="Times,serif" font-size="14" text-anchor="start">Public:</text><text x="8" y="-836.3" fill="#000" font-family="Times,serif" font-size="14" text-anchor="start">&lt;&lt;event&gt;&gt; OwnershipTransferred(previousOwner: address, newOwner: address)</text><text x="8" y="-819.5" fill="#000" font-family="Times,serif" font-size="14" text-anchor="start">&lt;&lt;modifier&gt;&gt; onlyOwner()</text><text x="8" y="-802.7" fill="#000" font-family="Times,serif" font-size="14" text-anchor="start">constructor()</text><text x="8" y="-785.9" fill="#000" font-family="Times,serif" font-size="14" text-anchor="start">owner(): address</text><text x="8" y="-769.1" fill="#000" font-family="Times,serif" font-size="14" text-anchor="start">renounceOwnership()</text><text x="8" y="-752.3" fill="#000" font-family="Times,serif" font-size="14" text-anchor="start">transferOwnership(newOwner: address)</text></g><g id="edge1" class="edge"><title>1-&gt;0</title><path fill="none" stroke="#000" d="M242.437,-952.9933C242.437,-971.8265 242.437,-991.3438 242.437,-1009.819"/><polygon fill="none" stroke="#000" points="231.937 -1010.104 242.437 -1040.103 252.937 -1010.104 231.937 -1010.104"/></g><g id="node3" class="node"><title>2</title><polygon fill="#f2f2f2" stroke="#000" points="503.137 -693.7 503.137 -1003.3 941.737 -1003.3 941.737 -693.7 503.137 -693.7"/><text x="722.437" y="-986.7" fill="#000" font-family="Times,serif" font-size="14" text-anchor="middle">&lt;&lt;Interface&gt;&gt;</text><text x="722.437" y="-969.9" fill="#000" font-family="Times,serif" font-size="14" text-anchor="middle">IBEP20</text><polyline fill="none" stroke="#000" points="503.137 -961.7 941.737 -961.7"/><polyline fill="none" stroke="#000" points="503.137 -936.9 941.737 -936.9"/><text x="511.137" y="-920.3" fill="#000" font-family="Times,serif" font-size="14" text-anchor="start">External:</text><text x="511.137" y="-903.5" fill="#000" font-family="Times,serif" font-size="14" text-anchor="start">name(): string</text><text x="511.137" y="-886.7" fill="#000" font-family="Times,serif" font-size="14" text-anchor="start">symbol(): string</text><text x="511.137" y="-869.9" fill="#000" font-family="Times,serif" font-size="14" text-anchor="start">decimals(): uint8</text><text x="511.137" y="-853.1" fill="#000" font-family="Times,serif" font-size="14" text-anchor="start">totalSupply(): uint256</text><text x="511.137" y="-836.3" fill="#000" font-family="Times,serif" font-size="14" text-anchor="start">balanceOf(account: address): uint256</text><text x="511.137" y="-819.5" fill="#000" font-family="Times,serif" font-size="14" text-anchor="start">getOwner(): address</text><text x="511.137" y="-802.7" fill="#000" font-family="Times,serif" font-size="14" text-anchor="start">transfer(recipient: address, amount: uint256): bool</text><text x="511.137" y="-785.9" fill="#000" font-family="Times,serif" font-size="14" text-anchor="start">transferFrom(sender: address, recipient: address, amount: uint256): bool</text><text x="511.137" y="-769.1" fill="#000" font-family="Times,serif" font-size="14" text-anchor="start">approve(spender: address, amount: uint256): bool</text><text x="511.137" y="-752.3" fill="#000" font-family="Times,serif" font-size="14" text-anchor="start">allowance(_owner: address, spender: address): uint256</text><text x="511.137" y="-735.5" fill="#000" font-family="Times,serif" font-size="14" text-anchor="start">Public:</text><text x="511.137" y="-718.7" fill="#000" font-family="Times,serif" font-size="14" text-anchor="start">&lt;&lt;event&gt;&gt; Transfer(from: address, to: address, value: uint256)</text><text x="511.137" y="-701.9" fill="#000" font-family="Times,serif" font-size="14" text-anchor="start">&lt;&lt;event&gt;&gt; Approval(owner: address, spender: address, value: uint256)</text></g><g id="node4" class="node"><title>3</title><polygon fill="#f2f2f2" stroke="#000" points="264.887 -145.5 264.887 -656.7 699.987 -656.7 699.987 -145.5 264.887 -145.5"/><text x="482.437" y="-640.1" fill="#000" font-family="Times,serif" font-size="14" text-anchor="middle">BEP20</text><polyline fill="none" stroke="#000" points="264.887 -631.9 699.987 -631.9"/><text x="272.887" y="-615.3" fill="#000" font-family="Times,serif" font-size="14" text-anchor="start">Private:</text><text x="272.887" y="-598.5" fill="#000" font-family="Times,serif" font-size="14" text-anchor="start">_balances: mapping(address=&gt;uint256)</text><text x="272.887" y="-581.7" fill="#000" font-family="Times,serif" font-size="14" text-anchor="start">_allowances: mapping(address=&gt;mapping(address=&gt;uint256))</text><text x="272.887" y="-564.9" fill="#000" font-family="Times,serif" font-size="14" text-anchor="start">_totalSupply: uint256</text><text x="272.887" y="-548.1" fill="#000" font-family="Times,serif" font-size="14" text-anchor="start">_name: string</text><text x="272.887" y="-531.3" fill="#000" font-family="Times,serif" font-size="14" text-anchor="start">_symbol: string</text><text x="272.887" y="-514.5" fill="#000" font-family="Times,serif" font-size="14" text-anchor="start">_decimals: uint8</text><polyline fill="none" stroke="#000" points="264.887 -506.3 699.987 -506.3"/><text x="272.887" y="-489.7" fill="#000" font-family="Times,serif" font-size="14" text-anchor="start">Internal:</text><text x="272.887" y="-472.9" fill="#000" font-family="Times,serif" font-size="14" text-anchor="start">_transfer(sender: address, recipient: address, amount: uint256)</text><text x="272.887" y="-456.1" fill="#000" font-family="Times,serif" font-size="14" text-anchor="start">_mint(account: address, amount: uint256)</text><text x="272.887" y="-439.3" fill="#000" font-family="Times,serif" font-size="14" text-anchor="start">_burn(account: address, amount: uint256)</text><text x="272.887" y="-422.5" fill="#000" font-family="Times,serif" font-size="14" text-anchor="start">_approve(owner: address, spender: address, amount: uint256)</text><text x="272.887" y="-405.7" fill="#000" font-family="Times,serif" font-size="14" text-anchor="start">_setupDecimals(decimals_: uint8)</text><text x="272.887" y="-388.9" fill="#000" font-family="Times,serif" font-size="14" text-anchor="start">_beforeTokenTransfer(from: address, to: address, amount: uint256)</text><text x="272.887" y="-372.1" fill="#000" font-family="Times,serif" font-size="14" text-anchor="start">Public:</text><text x="272.887" y="-355.3" fill="#000" font-family="Times,serif" font-size="14" text-anchor="start">constructor(name_: string, symbol_: string)</text><text x="272.887" y="-338.5" fill="#000" font-family="Times,serif" font-size="14" text-anchor="start">name(): string</text><text x="272.887" y="-321.7" fill="#000" font-family="Times,serif" font-size="14" text-anchor="start">symbol(): string</text><text x="272.887" y="-304.9" fill="#000" font-family="Times,serif" font-size="14" text-anchor="start">decimals(): uint8</text><text x="272.887" y="-288.1" fill="#000" font-family="Times,serif" font-size="14" text-anchor="start">totalSupply(): uint256</text><text x="272.887" y="-271.3" fill="#000" font-family="Times,serif" font-size="14" text-anchor="start">balanceOf(account: address): uint256</text><text x="272.887" y="-254.5" fill="#000" font-family="Times,serif" font-size="14" text-anchor="start">getOwner(): address</text><text x="272.887" y="-237.7" fill="#000" font-family="Times,serif" font-size="14" text-anchor="start">transfer(recipient: address, amount: uint256): bool</text><text x="272.887" y="-220.9" fill="#000" font-family="Times,serif" font-size="14" text-anchor="start">transferFrom(sender: address, recipient: address, amount: uint256): bool</text><text x="272.887" y="-204.1" fill="#000" font-family="Times,serif" font-size="14" text-anchor="start">approve(spender: address, amount: uint256): bool</text><text x="272.887" y="-187.3" fill="#000" font-family="Times,serif" font-size="14" text-anchor="start">allowance(owner: address, spender: address): uint256</text><text x="272.887" y="-170.5" fill="#000" font-family="Times,serif" font-size="14" text-anchor="start">increaseAllowance(spender: address, addedValue: uint256): bool</text><text x="272.887" y="-153.7" fill="#000" font-family="Times,serif" font-size="14" text-anchor="start">decreaseAllowance(spender: address, subtractedValue: uint256): bool</text></g><g id="edge2" class="edge"><title>3-&gt;1</title><path fill="none" stroke="#000" d="M345.263,-656.8151C334.0939,-677.6363 323.1274,-698.0796 312.7615,-717.4034"/><polygon fill="none" stroke="#000" points="303.477 -712.5 298.548 -743.9 321.982 -722.427 303.477 -712.5"/></g><g id="edge3" class="edge"><title>3-&gt;2</title><path fill="none" stroke="#000" stroke-dasharray="5 2" d="M619.611,-656.8151C621.4341,-660.2138 623.2519,-663.6025 625.0626,-666.9778"/><polygon fill="none" stroke="#000" points="615.878 -672.069 639.313 -693.542 634.384 -662.142 615.878 -672.069"/></g><g id="node5" class="node"><title>4</title><polygon fill="#f2f2f2" stroke="#000" points="805.748 -.5 805.748 -108.5 981.126 -108.5 981.126 -.5 805.748 -.5"/><text x="893.437" y="-91.9" fill="#000" font-family="Times,serif" font-size="14" text-anchor="middle">&lt;&lt;Interface&gt;&gt;</text><text x="893.437" y="-75.1" fill="#000" font-family="Times,serif" font-size="14" text-anchor="middle">IPayable</text><polyline fill="none" stroke="#000" points="805.748 -66.9 981.126 -66.9"/><polyline fill="none" stroke="#000" points="805.748 -42.1 981.126 -42.1"/><text x="813.748" y="-25.5" fill="#000" font-family="Times,serif" font-size="14" text-anchor="start">External:</text><text x="813.748" y="-8.7" fill="#000" font-family="Times,serif" font-size="14" text-anchor="start">pay(serviceName: string)</text></g><g id="node6" class="node"><title>5</title><polygon fill="#f2f2f2" stroke="#000" points="718.397 -347.1 718.397 -455.1 1034.477 -455.1 1034.477 -347.1 718.397 -347.1"/><text x="876.437" y="-438.5" fill="#000" font-family="Times,serif" font-size="14" text-anchor="middle">&lt;&lt;Abstract&gt;&gt;</text><text x="876.437" y="-421.7" fill="#000" font-family="Times,serif" font-size="14" text-anchor="middle">ServicePayer</text><polyline fill="none" stroke="#000" points="718.397 -413.5 1034.477 -413.5"/><polyline fill="none" stroke="#000" points="718.397 -388.7 1034.477 -388.7"/><text x="726.397" y="-372.1" fill="#000" font-family="Times,serif" font-size="14" text-anchor="start">Public:</text><text x="726.397" y="-355.3" fill="#000" font-family="Times,serif" font-size="14" text-anchor="start">constructor(receiver: address, serviceName: string)</text></g><g id="node7" class="node"><title>6</title><polygon fill="#f2f2f2" stroke="#000" points="177.207 -8.9 177.207 -100.1 787.667 -100.1 787.667 -8.9 177.207 -8.9"/><text x="482.437" y="-83.5" fill="#000" font-family="Times,serif" font-size="14" text-anchor="middle">StandardBEP20</text><polyline fill="none" stroke="#000" points="177.207 -75.3 787.667 -75.3"/><polyline fill="none" stroke="#000" points="177.207 -50.5 787.667 -50.5"/><text x="185.207" y="-33.9" fill="#000" font-family="Times,serif" font-size="14" text-anchor="start">Public:</text><text x="185.207" y="-17.1" fill="#000" font-family="Times,serif" font-size="14" text-anchor="start">constructor(name: string, symbol: string, decimals: uint8, initialBalance: uint256, feeReceiver: address)</text></g><g id="edge4" class="edge"><title>6-&gt;3</title><path fill="none" stroke="#000" d="M482.437,-100.1683C482.437,-104.8917 482.437,-109.8989 482.437,-115.1496"/><polygon fill="none" stroke="#000" points="471.937 -115.321 482.437 -145.321 492.937 -115.321 471.937 -115.321"/></g><g id="edge5" class="edge"><title>6-&gt;5</title><path fill="none" stroke="#000" d="M634.968,-100.199C661.415,-112.2087 687.4446,-126.9904 709.437,-145 766.921,-192.0737 811.4708,-264.236 840.0446,-319.977"/><polygon fill="none" stroke="#000" points="830.676 -324.72 853.33 -347.016 849.524 -315.46 830.676 -324.72"/></g></g></svg>