<svg xmlns="http://www.w3.org/2000/svg" xmlns:xlink="http://www.w3.org/1999/xlink" width="1512" height="1960" viewBox="0 0 1134.13 1469.8"><g id="graph0" class="graph" transform="scale(1 1) rotate(0) translate(4 1465.8)"><title>UmlClassDiagram</title><polygon fill="#fff" stroke="transparent" points="-4 4 -4 -1465.8 1130.126 -1465.8 1130.126 4 -4 4"/><g id="node1" class="node"><title>0</title><polygon fill="#f2f2f2" stroke="#000" points="163.488 -1336.5 163.488 -1461.3 321.386 -1461.3 321.386 -1336.5 163.488 -1336.5"/><text x="242.437" y="-1444.7" fill="#000" font-family="Times,serif" font-size="14" text-anchor="middle">&lt;&lt;Abstract&gt;&gt;</text><text x="242.437" y="-1427.9" fill="#000" font-family="Times,serif" font-size="14" text-anchor="middle">Context</text><polyline fill="none" stroke="#000" points="163.488 -1419.7 321.386 -1419.7"/><polyline fill="none" stroke="#000" points="163.488 -1394.9 321.386 -1394.9"/><text x="171.488" y="-1378.3" fill="#000" font-family="Times,serif" font-size="14" text-anchor="start">Internal:</text><text x="171.488" y="-1361.5" fill="#000" font-family="Times,serif" font-size="14" text-anchor="start">_msgSender(): address</text><text x="171.488" y="-1344.7" fill="#000" font-family="Times,serif" font-size="14" text-anchor="start">_msgData(): bytes</text></g><g id="node2" class="node"><title>1</title><polygon fill="#f2f2f2" stroke="#000" points="0 -1040.3 0 -1249.1 484.874 -1249.1 484.874 -1040.3 0 -1040.3"/><text x="242.437" y="-1232.5" fill="#000" font-family="Times,serif" font-size="14" text-anchor="middle">&lt;&lt;Abstract&gt;&gt;</text><text x="242.437" y="-1215.7" fill="#000" font-family="Times,serif" font-size="14" text-anchor="middle">Ownable</text><polyline fill="none" stroke="#000" points="0 -1207.5 484.874 -1207.5"/><text x="8" y="-1190.9" fill="#000" font-family="Times,serif" font-size="14" text-anchor="start">Private:</text><text x="8" y="-1174.1" fill="#000" font-family="Times,serif" font-size="14" text-anchor="start">_owner: address</text><polyline fill="none" stroke="#000" points="0 -1165.9 484.874 -1165.9"/><text x="8" y="-1149.3" fill="#000" font-family="Times,serif" font-size="14" text-anchor="start">Public:</text><text x="8" y="-1132.5" fill="#000" font-family="Times,serif" font-size="14" text-anchor="start">&lt;&lt;event&gt;&gt; OwnershipTransferred(previousOwner: address, newOwner: address)</text><text x="8" y="-1115.7" fill="#000" font-family="Times,serif" font-size="14" text-anchor="start">&lt;&lt;modifier&gt;&gt; onlyOwner()</text><text x="8" y="-1098.9" fill="#000" font-family="Times,serif" font-size="14" text-anchor="start">constructor()</text><text x="8" y="-1082.1" fill="#000" font-family="Times,serif" font-size="14" text-anchor="start">owner(): address</text><text x="8" y="-1065.3" fill="#000" font-family="Times,serif" font-size="14" text-anchor="start">renounceOwnership()</text><text x="8" y="-1048.5" fill="#000" font-family="Times,serif" font-size="14" text-anchor="start">transferOwnership(newOwner: address)</text></g><g id="edge1" class="edge"><title>1-&gt;0</title><path fill="none" stroke="#000" d="M242.437,-1249.1933C242.437,-1268.0265 242.437,-1287.5438 242.437,-1306.019"/><polygon fill="none" stroke="#000" points="231.937 -1306.303 242.437 -1336.303 252.937 -1306.304 231.937 -1306.303"/></g><g id="node3" class="node"><title>2</title><polygon fill="#f2f2f2" stroke="#000" points="503.137 -989.9 503.137 -1299.5 941.737 -1299.5 941.737 -989.9 503.137 -989.9"/><text x="722.437" y="-1282.9" fill="#000" font-family="Times,serif" font-size="14" text-anchor="middle">&lt;&lt;Interface&gt;&gt;</text><text x="722.437" y="-1266.1" fill="#000" font-family="Times,serif" font-size="14" text-anchor="middle">IBEP20</text><polyline fill="none" stroke="#000" points="503.137 -1257.9 941.737 -1257.9"/><polyline fill="none" stroke="#000" points="503.137 -1233.1 941.737 -1233.1"/><text x="511.137" y="-1216.5" fill="#000" font-family="Times,serif" font-size="14" text-anchor="start">External:</text><text x="511.137" y="-1199.7" fill="#000" font-family="Times,serif" font-size="14" text-anchor="start">name(): string</text><text x="511.137" y="-1182.9" fill="#000" font-family="Times,serif" font-size="14" text-anchor="start">symbol(): string</text><text x="511.137" y="-1166.1" fill="#000" font-family="Times,serif" font-size="14" text-anchor="start">decimals(): uint8</text><text x="511.137" y="-1149.3" fill="#000" font-family="Times,serif" font-size="14" text-anchor="start">totalSupply(): uint256</text><text x="511.137" y="-1132.5" fill="#000" font-family="Times,serif" font-size="14" text-anchor="start">balanceOf(account: address): uint256</text><text x="511.137" y="-1115.7" fill="#000" font-family="Times,serif" font-size="14" text-anchor="start">getOwner(): address</text><text x="511.137" y="-1098.9" fill="#000" font-family="Times,serif" font-size="14" text-anchor="start">transfer(recipient: address, amount: uint256): bool</text><text x="511.137" y="-1082.1" fill="#000" font-family="Times,serif" font-size="14" text-anchor="start">transferFrom(sender: address, recipient: address, amount: uint256): bool</text><text x="511.137" y="-1065.3" fill="#000" font-family="Times,serif" font-size="14" text-anchor="start">approve(spender: address, amount: uint256): bool</text><text x="511.137" y="-1048.5" fill="#000" font-family="Times,serif" font-size="14" text-anchor="start">allowance(_owner: address, spender: address): uint256</text><text x="511.137" y="-1031.7" fill="#000" font-family="Times,serif" font-size="14" text-anchor="start">Public:</text><text x="511.137" y="-1014.9" fill="#000" font-family="Times,serif" font-size="14" text-anchor="start">&lt;&lt;event&gt;&gt; Transfer(from: address, to: address, value: uint256)</text><text x="511.137" y="-998.1" fill="#000" font-family="Times,serif" font-size="14" text-anchor="start">&lt;&lt;event&gt;&gt; Approval(owner: address, spender: address, value: uint256)</text></g><g id="node4" class="node"><title>3</title><polygon fill="#f2f2f2" stroke="#000" points="264.887 -441.7 264.887 -952.9 699.987 -952.9 699.987 -441.7 264.887 -441.7"/><text x="482.437" y="-936.3" fill="#000" font-family="Times,serif" font-size="14" text-anchor="middle">BEP20</text><polyline fill="none" stroke="#000" points="264.887 -928.1 699.987 -928.1"/><text x="272.887" y="-911.5" fill="#000" font-family="Times,serif" font-size="14" text-anchor="start">Private:</text><text x="272.887" y="-894.7" fill="#000" font-family="Times,serif" font-size="14" text-anchor="start">_balances: mapping(address=&gt;uint256)</text><text x="272.887" y="-877.9" fill="#000" font-family="Times,serif" font-size="14" text-anchor="start">_allowances: mapping(address=&gt;mapping(address=&gt;uint256))</text><text x="272.887" y="-861.1" fill="#000" font-family="Times,serif" font-size="14" text-anchor="start">_totalSupply: uint256</text><text x="272.887" y="-844.3" fill="#000" font-family="Times,serif" font-size="14" text-anchor="start">_name: string</text><text x="272.887" y="-827.5" fill="#000" font-family="Times,serif" font-size="14" text-anchor="start">_symbol: string</text><text x="272.887" y="-810.7" fill="#000" font-family="Times,serif" font-size="14" text-anchor="start">_decimals: uint8</text><polyline fill="none" stroke="#000" points="264.887 -802.5 699.987 -802.5"/><text x="272.887" y="-785.9" fill="#000" font-family="Times,serif" font-size="14" text-anchor="start">Internal:</text><text x="272.887" y="-769.1" fill="#000" font-family="Times,serif" font-size="14" text-anchor="start">_transfer(sender: address, recipient: address, amount: uint256)</text><text x="272.887" y="-752.3" fill="#000" font-family="Times,serif" font-size="14" text-anchor="start">_mint(account: address, amount: uint256)</text><text x="272.887" y="-735.5" fill="#000" font-family="Times,serif" font-size="14" text-anchor="start">_burn(account: address, amount: uint256)</text><text x="272.887" y="-718.7" fill="#000" font-family="Times,serif" font-size="14" text-anchor="start">_approve(owner: address, spender: address, amount: uint256)</text><text x="272.887" y="-701.9" fill="#000" font-family="Times,serif" font-size="14" text-anchor="start">_setupDecimals(decimals_: uint8)</text><text x="272.887" y="-685.1" fill="#000" font-family="Times,serif" font-size="14" text-anchor="start">_beforeTokenTransfer(from: address, to: address, amount: uint256)</text><text x="272.887" y="-668.3" fill="#000" font-family="Times,serif" font-size="14" text-anchor="start">Public:</text><text x="272.887" y="-651.5" fill="#000" font-family="Times,serif" font-size="14" text-anchor="start">constructor(name_: string, symbol_: string)</text><text x="272.887" y="-634.7" fill="#000" font-family="Times,serif" font-size="14" text-anchor="start">name(): string</text><text x="272.887" y="-617.9" fill="#000" font-family="Times,serif" font-size="14" text-anchor="start">symbol(): string</text><text x="272.887" y="-601.1" fill="#000" font-family="Times,serif" font-size="14" text-anchor="start">decimals(): uint8</text><text x="272.887" y="-584.3" fill="#000" font-family="Times,serif" font-size="14" text-anchor="start">totalSupply(): uint256</text><text x="272.887" y="-567.5" fill="#000" font-family="Times,serif" font-size="14" text-anchor="start">balanceOf(account: address): uint256</text><text x="272.887" y="-550.7" fill="#000" font-family="Times,serif" font-size="14" text-anchor="start">getOwner(): address</text><text x="272.887" y="-533.9" fill="#000" font-family="Times,serif" font-size="14" text-anchor="start">transfer(recipient: address, amount: uint256): bool</text><text x="272.887" y="-517.1" fill="#000" font-family="Times,serif" font-size="14" text-anchor="start">transferFrom(sender: address, recipient: address, amount: uint256): bool</text><text x="272.887" y="-500.3" fill="#000" font-family="Times,serif" font-size="14" text-anchor="start">approve(spender: address, amount: uint256): bool</text><text x="272.887" y="-483.5" fill="#000" font-family="Times,serif" font-size="14" text-anchor="start">allowance(owner: address, spender: address): uint256</text><text x="272.887" y="-466.7" fill="#000" font-family="Times,serif" font-size="14" text-anchor="start">increaseAllowance(spender: address, addedValue: uint256): bool</text><text x="272.887" y="-449.9" fill="#000" font-family="Times,serif" font-size="14" text-anchor="start">decreaseAllowance(spender: address, subtractedValue: uint256): bool</text></g><g id="edge2" class="edge"><title>3-&gt;1</title><path fill="none" stroke="#000" d="M345.263,-953.0151C334.0939,-973.8363 323.1274,-994.2796 312.7615,-1013.6034"/><polygon fill="none" stroke="#000" points="303.477 -1008.7 298.548 -1040.1 321.982 -1018.627 303.477 -1008.7"/></g><g id="edge3" class="edge"><title>3-&gt;2</title><path fill="none" stroke="#000" stroke-dasharray="5 2" d="M619.611,-953.0151C621.4341,-956.4138 623.2519,-959.8025 625.0626,-963.1778"/><polygon fill="none" stroke="#000" points="615.878 -968.269 639.313 -989.742 634.384 -958.342 615.878 -968.269"/></g><g id="node5" class="node"><title>4</title><polygon fill="#f2f2f2" stroke="#000" points="208.905 -179.1 208.905 -404.7 465.969 -404.7 465.969 -179.1 208.905 -179.1"/><text x="337.437" y="-388.1" fill="#000" font-family="Times,serif" font-size="14" text-anchor="middle">&lt;&lt;Abstract&gt;&gt;</text><text x="337.437" y="-371.3" fill="#000" font-family="Times,serif" font-size="14" text-anchor="middle">BEP20Mintable</text><polyline fill="none" stroke="#000" points="208.905 -363.1 465.969 -363.1"/><text x="216.905" y="-346.5" fill="#000" font-family="Times,serif" font-size="14" text-anchor="start">Private:</text><text x="216.905" y="-329.7" fill="#000" font-family="Times,serif" font-size="14" text-anchor="start">_mintingFinished: bool</text><polyline fill="none" stroke="#000" points="208.905 -321.5 465.969 -321.5"/><text x="216.905" y="-304.9" fill="#000" font-family="Times,serif" font-size="14" text-anchor="start">Internal:</text><text x="216.905" y="-288.1" fill="#000" font-family="Times,serif" font-size="14" text-anchor="start">_finishMinting()</text><text x="216.905" y="-271.3" fill="#000" font-family="Times,serif" font-size="14" text-anchor="start">Public:</text><text x="216.905" y="-254.5" fill="#000" font-family="Times,serif" font-size="14" text-anchor="start">&lt;&lt;event&gt;&gt; MintFinished()</text><text x="216.905" y="-237.7" fill="#000" font-family="Times,serif" font-size="14" text-anchor="start">&lt;&lt;modifier&gt;&gt; canMint()</text><text x="216.905" y="-220.9" fill="#000" font-family="Times,serif" font-size="14" text-anchor="start">mintingFinished(): bool</text><text x="216.905" y="-204.1" fill="#000" font-family="Times,serif" font-size="14" text-anchor="start">mint(account: address, amount: uint256)</text><text x="216.905" y="-187.3" fill="#000" font-family="Times,serif" font-size="14" text-anchor="start">finishMinting()</text></g><g id="edge4" class="edge"><title>4-&gt;3</title><path fill="none" stroke="#000" d="M377.8276,-404.8265C378.8194,-407.5995 379.8213,-410.4006 380.8322,-413.227"/><polygon fill="none" stroke="#000" points="371.004 -416.928 390.994 -441.639 390.778 -409.855 371.004 -416.928"/></g><g id="node6" class="node"><title>5</title><polygon fill="#f2f2f2" stroke="#000" points="483.743 -229.5 483.743 -354.3 771.131 -354.3 771.131 -229.5 483.743 -229.5"/><text x="627.437" y="-337.7" fill="#000" font-family="Times,serif" font-size="14" text-anchor="middle">&lt;&lt;Abstract&gt;&gt;</text><text x="627.437" y="-320.9" fill="#000" font-family="Times,serif" font-size="14" text-anchor="middle">BEP20Burnable</text><polyline fill="none" stroke="#000" points="483.743 -312.7 771.131 -312.7"/><polyline fill="none" stroke="#000" points="483.743 -287.9 771.131 -287.9"/><text x="491.743" y="-271.3" fill="#000" font-family="Times,serif" font-size="14" text-anchor="start">Public:</text><text x="491.743" y="-254.5" fill="#000" font-family="Times,serif" font-size="14" text-anchor="start">burn(amount: uint256)</text><text x="491.743" y="-237.7" fill="#000" font-family="Times,serif" font-size="14" text-anchor="start">burnFrom(account: address, amount: uint256)</text></g><g id="edge5" class="edge"><title>5-&gt;3</title><path fill="none" stroke="#000" d="M605.0985,-354.3553C598.9051,-371.6713 591.7537,-391.6655 584.0798,-413.1208"/><polygon fill="none" stroke="#000" points="574.138 -409.74 573.921 -441.523 593.911 -416.812 574.138 -409.74"/></g><g id="node7" class="node"><title>6</title><polygon fill="#f2f2f2" stroke="#000" points="950.748 -17.3 950.748 -125.3 1126.126 -125.3 1126.126 -17.3 950.748 -17.3"/><text x="1038.437" y="-108.7" fill="#000" font-family="Times,serif" font-size="14" text-anchor="middle">&lt;&lt;Interface&gt;&gt;</text><text x="1038.437" y="-91.9" fill="#000" font-family="Times,serif" font-size="14" text-anchor="middle">IPayable</text><polyline fill="none" stroke="#000" points="950.748 -83.7 1126.126 -83.7"/><polyline fill="none" stroke="#000" points="950.748 -58.9 1126.126 -58.9"/><text x="958.748" y="-42.3" fill="#000" font-family="Times,serif" font-size="14" text-anchor="start">External:</text><text x="958.748" y="-25.5" fill="#000" font-family="Times,serif" font-size="14" text-anchor="start">pay(serviceName: string)</text></g><g id="node8" class="node"><title>7</title><polygon fill="#f2f2f2" stroke="#000" points="789.397 -237.9 789.397 -345.9 1105.477 -345.9 1105.477 -237.9 789.397 -237.9"/><text x="947.437" y="-329.3" fill="#000" font-family="Times,serif" font-size="14" text-anchor="middle">&lt;&lt;Abstract&gt;&gt;</text><text x="947.437" y="-312.5" fill="#000" font-family="Times,serif" font-size="14" text-anchor="middle">ServicePayer</text><polyline fill="none" stroke="#000" points="789.397 -304.3 1105.477 -304.3"/><polyline fill="none" stroke="#000" points="789.397 -279.5 1105.477 -279.5"/><text x="797.397" y="-262.9" fill="#000" font-family="Times,serif" font-size="14" text-anchor="start">Public:</text><text x="797.397" y="-246.1" fill="#000" font-family="Times,serif" font-size="14" text-anchor="start">constructor(receiver: address, serviceName: string)</text></g><g id="node9" class="node"><title>8</title><polygon fill="#f2f2f2" stroke="#000" points="322.207 -.5 322.207 -142.1 932.667 -142.1 932.667 -.5 322.207 -.5"/><text x="627.437" y="-125.5" fill="#000" font-family="Times,serif" font-size="14" text-anchor="middle">UnlimitedBEP20</text><polyline fill="none" stroke="#000" points="322.207 -117.3 932.667 -117.3"/><polyline fill="none" stroke="#000" points="322.207 -92.5 932.667 -92.5"/><text x="330.207" y="-75.9" fill="#000" font-family="Times,serif" font-size="14" text-anchor="start">Internal:</text><text x="330.207" y="-59.1" fill="#000" font-family="Times,serif" font-size="14" text-anchor="start">_mint(account: address, amount: uint256)</text><text x="330.207" y="-42.3" fill="#000" font-family="Times,serif" font-size="14" text-anchor="start">_finishMinting()</text><text x="330.207" y="-25.5" fill="#000" font-family="Times,serif" font-size="14" text-anchor="start">Public:</text><text x="330.207" y="-8.7" fill="#000" font-family="Times,serif" font-size="14" text-anchor="start">constructor(name: string, symbol: string, decimals: uint8, initialBalance: uint256, feeReceiver: address)</text></g><g id="edge6" class="edge"><title>8-&gt;4</title><path fill="none" stroke="#000" d="M523.7549,-142.3432C513.3469,-149.7727 502.8323,-157.3916 490.576,-166.5196"/><polygon fill="none" stroke="#000" points="483.895 -158.407 466.281 -184.865 496.549 -175.166 483.895 -158.407"/></g><g id="edge7" class="edge"><title>8-&gt;5</title><path fill="none" stroke="#000" d="M627.437,-142.3135C627.437,-160.3357 627.437,-179.9676 627.437,-198.9019"/><polygon fill="none" stroke="#000" points="616.937 -199.206 627.437 -229.206 637.937 -199.206 616.937 -199.206"/></g><g id="edge8" class="edge"><title>8-&gt;7</title><path fill="none" stroke="#000" d="M730.4484,-142.3135C766.7915,-167.3675 807.647,-195.5322 844.0232,-220.6091"/><polygon fill="none" stroke="#000" points="838.324 -229.434 868.983 -237.816 850.243 -212.144 838.324 -229.434"/></g></g></svg>